M48
;DRILL file {KiCad 4.0.7} date 07/04/18 13:57:51
;FORMAT={-:-/ absolute / inch / decimal}
FMAT,2
INCH,TZ
T1C0.020
T2C0.028
T3C0.028
T4C0.035
T5C0.039
T6C0.039
T7C0.042
T8C0.043
%
G90
G05
M72
T1
X4.2Y-5.45
X4.3Y-3.95
X4.6Y-3.6
X4.85Y-3.65
X4.85Y-3.7
X6.15Y-4.1
X6.25Y-3.55
X6.4Y-3.7
X6.6Y-3.7
X6.85Y-4.55
X6.95Y-3.75
T2
X7.1606Y-4.2
X7.2394Y-4.2
X7.6Y-4.6106
X7.6Y-4.6894
T3
X4.8Y-4.6
X4.8Y-4.7
X4.85Y-4.
X4.85Y-4.4
X4.9Y-4.7
X4.95Y-3.9
X4.95Y-4.
X4.95Y-4.3
X4.95Y-4.4
X5.15Y-4.2
X5.2Y-3.7
X5.25Y-4.1
X5.25Y-4.2
X5.3Y-3.7
X5.3Y-3.8
T4
X3.65Y-3.5
X3.65Y-3.95
X3.65Y-4.15
X3.65Y-4.3
X3.65Y-4.55
X3.65Y-4.75
X3.65Y-4.95
X3.95Y-3.5
X3.95Y-3.95
X3.95Y-4.15
X3.95Y-4.3
X3.95Y-4.55
X3.95Y-4.75
X3.95Y-4.95
X4.7Y-4.95
X4.75Y-3.45
X5.Y-4.95
X5.05Y-3.45
X5.15Y-4.65
X5.15Y-4.95
X5.35Y-3.4
X5.5Y-3.65
X5.5Y-3.95
X5.64Y-4.24
X5.65Y-3.4
X5.75Y-3.55
X5.75Y-3.85
X5.94Y-4.24
X6.Y-3.95
X6.1Y-3.95
X6.1Y-4.55
X6.2Y-4.55
X6.4Y-4.
X6.4Y-4.1
X6.4Y-4.2
X6.4Y-4.3
X6.7Y-4.
X6.7Y-4.1
X6.7Y-4.2
X6.7Y-4.3
X6.7Y-4.9
X7.Y-4.7
X7.Y-4.9
X7.1Y-4.7
X7.3Y-3.65
X7.3Y-3.75
X7.3Y-3.85
X7.3Y-3.95
X7.6Y-3.65
X7.6Y-3.75
X7.6Y-3.85
X7.6Y-3.95
X7.6Y-4.1
X7.6Y-4.4
T5
X6.9031Y-3.45
X7.0016Y-3.45
X7.1Y-3.45
T6
X6.705Y-5.12
X7.105Y-5.12
T7
X4.0465Y-3.134
X4.0465Y-3.234
X4.0465Y-5.134
X4.0465Y-5.234
X4.1465Y-3.134
X4.1465Y-3.234
X4.1465Y-5.134
X4.1465Y-5.234
X4.15Y-3.8
X4.15Y-4.
X4.15Y-4.2
X4.15Y-4.3
X4.15Y-4.4
X4.15Y-4.5
X4.2465Y-3.134
X4.2465Y-3.234
X4.2465Y-5.134
X4.2465Y-5.234
X4.3465Y-3.134
X4.3465Y-3.234
X4.3465Y-5.134
X4.3465Y-5.234
X4.4465Y-3.134
X4.4465Y-3.234
X4.4465Y-5.134
X4.4465Y-5.234
X4.5465Y-3.134
X4.5465Y-3.234
X4.5465Y-5.134
X4.5465Y-5.234
X4.55Y-3.8
X4.55Y-3.9
X4.55Y-4.
X4.55Y-4.1
X4.55Y-4.2
X4.55Y-4.3
X4.55Y-4.4
X4.55Y-4.5
X4.6465Y-3.134
X4.6465Y-3.234
X4.6465Y-5.134
X4.6465Y-5.234
X4.7465Y-3.134
X4.7465Y-3.234
X4.7465Y-5.134
X4.7465Y-5.234
X4.8465Y-3.134
X4.8465Y-3.234
X4.8465Y-5.134
X4.8465Y-5.234
X4.9465Y-3.134
X4.9465Y-3.234
X4.9465Y-5.134
X4.9465Y-5.234
X5.0465Y-3.134
X5.0465Y-3.234
X5.0465Y-5.134
X5.0465Y-5.234
X5.1465Y-3.134
X5.1465Y-3.234
X5.1465Y-5.134
X5.1465Y-5.234
X5.2465Y-3.134
X5.2465Y-3.234
X5.2465Y-5.134
X5.2465Y-5.234
X5.3465Y-3.134
X5.3465Y-3.234
X5.3465Y-5.134
X5.3465Y-5.234
X5.4465Y-3.134
X5.4465Y-3.234
X5.4465Y-5.134
X5.4465Y-5.234
X5.5465Y-3.134
X5.5465Y-3.234
X5.5465Y-5.134
X5.5465Y-5.234
X5.6465Y-3.134
X5.6465Y-3.234
X5.6465Y-5.134
X5.6465Y-5.234
X5.7465Y-3.134
X5.7465Y-3.234
X5.7465Y-5.134
X5.7465Y-5.234
X5.8465Y-3.134
X5.8465Y-3.234
X5.8465Y-5.134
X5.8465Y-5.234
X5.9465Y-3.134
X5.9465Y-3.234
X5.9465Y-5.134
X5.9465Y-5.234
X6.0465Y-3.134
X6.0465Y-3.234
X6.0465Y-5.134
X6.0465Y-5.234
X6.1465Y-3.134
X6.1465Y-3.234
X6.1465Y-5.134
X6.1465Y-5.234
X6.2465Y-3.134
X6.2465Y-3.234
X6.2465Y-5.134
X6.2465Y-5.234
X6.3465Y-3.134
X6.3465Y-3.234
X6.3465Y-5.134
X6.3465Y-5.234
X6.4465Y-3.134
X6.4465Y-3.234
X6.4465Y-5.134
X6.4465Y-5.234
X6.85Y-5.35
X6.85Y-5.75
X7.25Y-4.7
X7.25Y-5.1
X7.5465Y-3.134
X7.5465Y-5.234
X7.6465Y-3.134
X7.6465Y-5.234
T8
X4.35Y-5.45
X4.35Y-5.6272
X4.6059Y-5.45
X4.6059Y-5.6272
X4.85Y-5.45
X4.85Y-5.6272
X5.1059Y-5.45
X5.1059Y-5.6272
X5.35Y-5.45
X5.35Y-5.6272
X5.6059Y-5.45
X5.6059Y-5.6272
X5.85Y-5.455
X5.85Y-5.6322
X6.1059Y-5.455
X6.1059Y-5.6322
X6.35Y-5.455
X6.35Y-5.6322
X6.6059Y-5.455
X6.6059Y-5.6322
T0
M30
