G04 #@! TF.FileFunction,Copper,L2,Bot,Signal*
%FSLAX46Y46*%
G04 Gerber Fmt 4.6, Leading zero omitted, Abs format (unit mm)*
G04 Created by KiCad (PCBNEW 4.0.7) date 07/04/18 13:56:47*
%MOMM*%
%LPD*%
G01*
G04 APERTURE LIST*
%ADD10C,0.100000*%
%ADD11C,2.499360*%
%ADD12R,2.286000X1.524000*%
%ADD13O,2.286000X1.524000*%
%ADD14C,1.778000*%
%ADD15R,1.524000X2.032000*%
%ADD16O,1.651000X2.286000*%
%ADD17C,1.397000*%
%ADD18R,1.397000X1.397000*%
%ADD19R,1.778000X1.778000*%
%ADD20C,1.800000*%
%ADD21C,4.000000*%
%ADD22C,2.000000*%
%ADD23C,1.905000*%
%ADD24C,1.016000*%
%ADD25C,0.508000*%
%ADD26C,0.254000*%
G04 APERTURE END LIST*
D10*
D11*
X180467000Y-130048000D03*
X170307000Y-130048000D03*
D12*
X162560000Y-101600000D03*
D13*
X162560000Y-104140000D03*
X162560000Y-106680000D03*
X162560000Y-109220000D03*
X170180000Y-109220000D03*
X170180000Y-106680000D03*
X170180000Y-104140000D03*
X170180000Y-101600000D03*
D14*
X150876000Y-107696000D03*
X143256000Y-107696000D03*
D15*
X194219900Y-132943600D03*
D16*
X191679900Y-132943600D03*
X191679900Y-79603600D03*
D15*
X194219900Y-79603600D03*
X163741100Y-79349600D03*
D16*
X161201100Y-79349600D03*
X158661100Y-79349600D03*
X156121100Y-79349600D03*
X153581100Y-79349600D03*
X151041100Y-79349600D03*
X148501100Y-79349600D03*
X145961100Y-79349600D03*
X143421100Y-79349600D03*
X140881100Y-79349600D03*
X138341100Y-79349600D03*
X135801100Y-79349600D03*
X133261100Y-79349600D03*
X130721100Y-79349600D03*
X128181100Y-79349600D03*
X125641100Y-79349600D03*
X123101100Y-79349600D03*
X120561100Y-79349600D03*
X118021100Y-79349600D03*
X115481100Y-79349600D03*
X112941100Y-79349600D03*
X110401100Y-79349600D03*
X107861100Y-79349600D03*
X105321100Y-79349600D03*
X102781100Y-79349600D03*
X163741100Y-82397600D03*
X161201100Y-82397600D03*
X158661100Y-82397600D03*
X156121100Y-82397600D03*
X153581100Y-82397600D03*
X151041100Y-82397600D03*
X148501100Y-82397600D03*
X145961100Y-82397600D03*
X143421100Y-82397600D03*
X140881100Y-82397600D03*
X138341100Y-82397600D03*
X135801100Y-82397600D03*
X133261100Y-82397600D03*
X130721100Y-82397600D03*
X128181100Y-82397600D03*
X125641100Y-82397600D03*
X123101100Y-82397600D03*
X120561100Y-82397600D03*
X118021100Y-82397600D03*
X115481100Y-82397600D03*
X112941100Y-82397600D03*
X110401100Y-82397600D03*
X107861100Y-82397600D03*
X105321100Y-82397600D03*
X102781100Y-82397600D03*
X163741100Y-130149600D03*
X161201100Y-130149600D03*
X158661100Y-130149600D03*
X156121100Y-130149600D03*
X153581100Y-130149600D03*
X151041100Y-130149600D03*
X148501100Y-130149600D03*
X145961100Y-130149600D03*
X143421100Y-130149600D03*
X140881100Y-130149600D03*
X138341100Y-130149600D03*
X135801100Y-130149600D03*
X133261100Y-130149600D03*
X130721100Y-130149600D03*
X128181100Y-130149600D03*
X125641100Y-130149600D03*
X123101100Y-130149600D03*
X120561100Y-130149600D03*
X118021100Y-130149600D03*
X115481100Y-130149600D03*
X112941100Y-130149600D03*
X110401100Y-130149600D03*
X107861100Y-130149600D03*
X105321100Y-130149600D03*
X102781100Y-130149600D03*
X163741100Y-133197600D03*
X161201100Y-133197600D03*
X158661100Y-133197600D03*
X156121100Y-133197600D03*
X153581100Y-133197600D03*
X151041100Y-133197600D03*
X148501100Y-133197600D03*
X145961100Y-133197600D03*
X143421100Y-133197600D03*
X140881100Y-133197600D03*
X138341100Y-133197600D03*
X135801100Y-133197600D03*
X133261100Y-133197600D03*
X130721100Y-133197600D03*
X128181100Y-133197600D03*
X125641100Y-133197600D03*
X123101100Y-133197600D03*
X120561100Y-133197600D03*
X118021100Y-133197600D03*
X115481100Y-133197600D03*
X112941100Y-133197600D03*
X110401100Y-133197600D03*
X107861100Y-133197600D03*
X105321100Y-133197600D03*
X102781100Y-133197600D03*
D14*
X180340000Y-119380000D03*
X177800000Y-119380000D03*
D17*
X193040000Y-119110000D03*
D18*
X193040000Y-117110000D03*
D14*
X154940000Y-115570000D03*
X157480000Y-115570000D03*
D17*
X181880000Y-106680000D03*
D18*
X183880000Y-106680000D03*
D14*
X154940000Y-100330000D03*
X152400000Y-100330000D03*
D19*
X184150000Y-129540000D03*
D14*
X184150000Y-119380000D03*
D19*
X173990000Y-146050000D03*
D14*
X173990000Y-135890000D03*
D20*
X175340000Y-87630000D03*
X177840000Y-87630000D03*
X180340000Y-87630000D03*
D21*
X173440000Y-80630000D03*
X182240000Y-80630000D03*
D18*
X132080000Y-93980000D03*
D17*
X134620000Y-93980000D03*
X134620000Y-96520000D03*
D18*
X125730000Y-99060000D03*
D17*
X125730000Y-101600000D03*
X123190000Y-101600000D03*
D18*
X133350000Y-104140000D03*
D17*
X133350000Y-106680000D03*
X130810000Y-106680000D03*
D18*
X125730000Y-109220000D03*
D17*
X125730000Y-111760000D03*
X123190000Y-111760000D03*
D18*
X124460000Y-119380000D03*
D17*
X121920000Y-119380000D03*
X121920000Y-116840000D03*
D14*
X170180000Y-124460000D03*
X177800000Y-124460000D03*
X146050000Y-97790000D03*
X146050000Y-90170000D03*
X128270000Y-87630000D03*
X120650000Y-87630000D03*
X139700000Y-100330000D03*
X139700000Y-92710000D03*
X143510000Y-86360000D03*
X135890000Y-86360000D03*
X130810000Y-118110000D03*
X130810000Y-125730000D03*
X92710000Y-109220000D03*
X100330000Y-109220000D03*
X92710000Y-120650000D03*
X100330000Y-120650000D03*
X92710000Y-105410000D03*
X100330000Y-105410000D03*
X92710000Y-125730000D03*
X100330000Y-125730000D03*
X92710000Y-88900000D03*
X100330000Y-88900000D03*
X92710000Y-100330000D03*
X100330000Y-100330000D03*
X92710000Y-115570000D03*
X100330000Y-115570000D03*
X127000000Y-125730000D03*
X119380000Y-125730000D03*
X193040000Y-104140000D03*
X193040000Y-111760000D03*
D22*
X110490000Y-142930000D03*
X110490000Y-138430000D03*
X116990000Y-142930000D03*
X116990000Y-138430000D03*
X123190000Y-142930000D03*
X123190000Y-138430000D03*
X129690000Y-142930000D03*
X129690000Y-138430000D03*
X135890000Y-142930000D03*
X135890000Y-138430000D03*
X142390000Y-142930000D03*
X142390000Y-138430000D03*
X148590000Y-143057000D03*
X148590000Y-138557000D03*
X155090000Y-143057000D03*
X155090000Y-138557000D03*
X161290000Y-143057000D03*
X161290000Y-138557000D03*
X167790000Y-143057000D03*
X167790000Y-138557000D03*
D12*
X185420000Y-92710000D03*
D13*
X185420000Y-95250000D03*
X185420000Y-97790000D03*
X185420000Y-100330000D03*
X193040000Y-100330000D03*
X193040000Y-97790000D03*
X193040000Y-95250000D03*
X193040000Y-92710000D03*
D23*
X115570000Y-111760000D03*
X115570000Y-109220000D03*
X115570000Y-106680000D03*
X115570000Y-104140000D03*
X115570000Y-101600000D03*
X115570000Y-99060000D03*
X115570000Y-96520000D03*
X115570000Y-114300000D03*
X105410000Y-96520000D03*
X105410000Y-101600000D03*
X105410000Y-106680000D03*
X105410000Y-109220000D03*
X105410000Y-111760000D03*
X105410000Y-114300000D03*
D24*
X176530000Y-95250000D03*
X173990000Y-115570000D03*
X158750000Y-90170000D03*
X156210000Y-104140000D03*
X167640000Y-93980000D03*
X123190000Y-93980000D03*
X123190000Y-92710000D03*
X109220000Y-100330000D03*
X116840000Y-91440000D03*
X162560000Y-93980000D03*
X106680000Y-138430000D03*
D25*
X181880000Y-106680000D02*
X177800000Y-106680000D01*
X177800000Y-106680000D02*
X173990000Y-110490000D01*
X185420000Y-100330000D02*
X180340000Y-100330000D01*
X180340000Y-100330000D02*
X173990000Y-106680000D01*
X140970000Y-125730000D02*
X159067500Y-125730000D01*
X140970000Y-125730000D02*
X132080000Y-116840000D01*
X132080000Y-116840000D02*
X132080000Y-113030000D01*
X128270000Y-109220000D02*
X132080000Y-113030000D01*
X159067500Y-125730000D02*
X163741100Y-130403600D01*
X185420000Y-95250000D02*
X176530000Y-95250000D01*
X125730000Y-99060000D02*
X129540000Y-99060000D01*
X129540000Y-99060000D02*
X130810000Y-100330000D01*
X132080000Y-93980000D02*
X132080000Y-99060000D01*
X132080000Y-99060000D02*
X130810000Y-100330000D01*
X124460000Y-119380000D02*
X124460000Y-116840000D01*
X128270000Y-113030000D02*
X128270000Y-109220000D01*
X128270000Y-109220000D02*
X128270000Y-102870000D01*
X124460000Y-116840000D02*
X128270000Y-113030000D01*
X125730000Y-109220000D02*
X125730000Y-105410000D01*
X125730000Y-105410000D02*
X128270000Y-102870000D01*
X128270000Y-102870000D02*
X130810000Y-100330000D01*
X130810000Y-100330000D02*
X131445000Y-99695000D01*
X133350000Y-104140000D02*
X133350000Y-101600000D01*
X133350000Y-101600000D02*
X131445000Y-99695000D01*
X173990000Y-106680000D02*
X173990000Y-110490000D01*
X173990000Y-110490000D02*
X173990000Y-115570000D01*
X183880000Y-106680000D02*
X184150000Y-106680000D01*
X184150000Y-106680000D02*
X193040000Y-97790000D01*
X157480000Y-91440000D02*
X158750000Y-90170000D01*
X157480000Y-102870000D02*
X157480000Y-91440000D01*
X156210000Y-104140000D02*
X157480000Y-102870000D01*
X175260000Y-92710000D02*
X180340000Y-87630000D01*
X168910000Y-92710000D02*
X175260000Y-92710000D01*
X167640000Y-93980000D02*
X168910000Y-92710000D01*
X133350000Y-106680000D02*
X138430000Y-106680000D01*
X143510000Y-101600000D02*
X143510000Y-86360000D01*
X138430000Y-106680000D02*
X143510000Y-101600000D01*
X127000000Y-125730000D02*
X127000000Y-124460000D01*
X127000000Y-124460000D02*
X121920000Y-119380000D01*
X135890000Y-86360000D02*
X127000000Y-95250000D01*
X115481100Y-92621100D02*
X115481100Y-82143600D01*
X118110000Y-95250000D02*
X115481100Y-92621100D01*
X127000000Y-95250000D02*
X118110000Y-95250000D01*
X133261100Y-82143600D02*
X133261100Y-87718900D01*
X127000000Y-93980000D02*
X123190000Y-93980000D01*
X133261100Y-87718900D02*
X127000000Y-93980000D01*
X92710000Y-125730000D02*
X92710000Y-124460000D01*
X130721100Y-88988900D02*
X130721100Y-82143600D01*
X127000000Y-92710000D02*
X130721100Y-88988900D01*
X123190000Y-92710000D02*
X127000000Y-92710000D01*
X109220000Y-114300000D02*
X109220000Y-100330000D01*
X100330000Y-123190000D02*
X109220000Y-114300000D01*
X93980000Y-123190000D02*
X100330000Y-123190000D01*
X92710000Y-124460000D02*
X93980000Y-123190000D01*
X100330000Y-125730000D02*
X100330000Y-124460000D01*
X100330000Y-124460000D02*
X115570000Y-109220000D01*
X100330000Y-88900000D02*
X101600000Y-88900000D01*
X113030000Y-101600000D02*
X115570000Y-104140000D01*
X113030000Y-100330000D02*
X113030000Y-101600000D01*
X101600000Y-88900000D02*
X113030000Y-100330000D01*
X125234700Y-85090000D02*
X128181100Y-82143600D01*
X119380000Y-85090000D02*
X125234700Y-85090000D01*
X118110000Y-86360000D02*
X119380000Y-85090000D01*
X118110000Y-90170000D02*
X118110000Y-86360000D01*
X116840000Y-91440000D02*
X118110000Y-90170000D01*
X92710000Y-115570000D02*
X88900000Y-111760000D01*
X123507500Y-77470000D02*
X125641100Y-79603600D01*
X100330000Y-77470000D02*
X123507500Y-77470000D01*
X88900000Y-88900000D02*
X100330000Y-77470000D01*
X88900000Y-111760000D02*
X88900000Y-88900000D01*
X119380000Y-125730000D02*
X118110000Y-125730000D01*
X122694700Y-135890000D02*
X125641100Y-132943600D01*
X101600000Y-135890000D02*
X122694700Y-135890000D01*
X99060000Y-133350000D02*
X101600000Y-135890000D01*
X99060000Y-129540000D02*
X99060000Y-133350000D01*
X101600000Y-127000000D02*
X99060000Y-129540000D01*
X116840000Y-127000000D02*
X101600000Y-127000000D01*
X118110000Y-125730000D02*
X116840000Y-127000000D01*
X129690000Y-138430000D02*
X130810000Y-138430000D01*
X130810000Y-138430000D02*
X133350000Y-135890000D01*
X166370000Y-77470000D02*
X163830000Y-74930000D01*
X125730000Y-138430000D02*
X128270000Y-135890000D01*
X128270000Y-135890000D02*
X133350000Y-135890000D01*
X133350000Y-135890000D02*
X170180000Y-135890000D01*
X170180000Y-135890000D02*
X172720000Y-133350000D01*
X172720000Y-133350000D02*
X172720000Y-129540000D01*
X172720000Y-129540000D02*
X160020000Y-116840000D01*
X160020000Y-116840000D02*
X160020000Y-90170000D01*
X160020000Y-90170000D02*
X166370000Y-83820000D01*
X166370000Y-83820000D02*
X166370000Y-77470000D01*
X123190000Y-138430000D02*
X125730000Y-138430000D01*
X145554700Y-74930000D02*
X140881100Y-79603600D01*
X163830000Y-74930000D02*
X145554700Y-74930000D01*
X109220000Y-138430000D02*
X107950000Y-137160000D01*
X107950000Y-137160000D02*
X105410000Y-137160000D01*
X105410000Y-137160000D02*
X102870000Y-139700000D01*
X102870000Y-139700000D02*
X102870000Y-143510000D01*
X102870000Y-143510000D02*
X105410000Y-146050000D01*
X105410000Y-146050000D02*
X167640000Y-146050000D01*
X167640000Y-146050000D02*
X171450000Y-142240000D01*
X171450000Y-142240000D02*
X171450000Y-135890000D01*
X171450000Y-135890000D02*
X173990000Y-133350000D01*
X173990000Y-133350000D02*
X173990000Y-120650000D01*
X173990000Y-120650000D02*
X165100000Y-111760000D01*
X165100000Y-111760000D02*
X165100000Y-96520000D01*
X165100000Y-96520000D02*
X162560000Y-93980000D01*
X110490000Y-138430000D02*
X109220000Y-138430000D01*
X116990000Y-138430000D02*
X110490000Y-138430000D01*
X142390000Y-138430000D02*
X135890000Y-138430000D01*
X135890000Y-138430000D02*
X133350000Y-140970000D01*
X133350000Y-140970000D02*
X109220000Y-140970000D01*
X109220000Y-140970000D02*
X106680000Y-138430000D01*
D26*
G36*
X101320600Y-78905100D02*
X101320600Y-79222600D01*
X102654100Y-79222600D01*
X102654100Y-79202600D01*
X102908100Y-79202600D01*
X102908100Y-79222600D01*
X102928100Y-79222600D01*
X102928100Y-79476600D01*
X102908100Y-79476600D01*
X102908100Y-82270600D01*
X102928100Y-82270600D01*
X102928100Y-82524600D01*
X102908100Y-82524600D01*
X102908100Y-84010640D01*
X103134144Y-84132288D01*
X103222677Y-84113027D01*
X103720513Y-83839562D01*
X103929160Y-84151825D01*
X104567788Y-84578542D01*
X105321100Y-84728385D01*
X106074412Y-84578542D01*
X106591100Y-84233303D01*
X107107788Y-84578542D01*
X107861100Y-84728385D01*
X108614412Y-84578542D01*
X109131100Y-84233303D01*
X109647788Y-84578542D01*
X110401100Y-84728385D01*
X111154412Y-84578542D01*
X111671100Y-84233303D01*
X112187788Y-84578542D01*
X112941100Y-84728385D01*
X113694412Y-84578542D01*
X114084100Y-84318161D01*
X114084100Y-92621100D01*
X114190440Y-93155709D01*
X114493272Y-93608928D01*
X115308615Y-94424271D01*
X115155008Y-94424137D01*
X114384545Y-94742486D01*
X113794558Y-95331445D01*
X113474865Y-96101351D01*
X113474137Y-96934992D01*
X113792486Y-97705455D01*
X113876515Y-97789631D01*
X113794558Y-97871445D01*
X113474865Y-98641351D01*
X113474727Y-98799071D01*
X102587828Y-87912172D01*
X102134609Y-87609340D01*
X101857804Y-87554280D01*
X101482538Y-87178359D01*
X100735963Y-86868354D01*
X99927584Y-86867648D01*
X99180468Y-87176350D01*
X98608359Y-87747462D01*
X98298354Y-88494037D01*
X98297648Y-89302416D01*
X98606350Y-90049532D01*
X99177462Y-90621641D01*
X99924037Y-90931646D01*
X100732416Y-90932352D01*
X101386453Y-90662109D01*
X105148615Y-94424271D01*
X104995008Y-94424137D01*
X104224545Y-94742486D01*
X103634558Y-95331445D01*
X103314865Y-96101351D01*
X103314137Y-96934992D01*
X103632486Y-97705455D01*
X104221445Y-98295442D01*
X104991351Y-98615135D01*
X105824992Y-98615863D01*
X106595455Y-98297514D01*
X107185442Y-97708555D01*
X107505135Y-96938649D01*
X107505273Y-96780929D01*
X109403503Y-98679159D01*
X108893037Y-98678714D01*
X108286005Y-98929534D01*
X107821166Y-99393563D01*
X107569287Y-100000155D01*
X107568714Y-100656963D01*
X107819534Y-101263995D01*
X107823000Y-101267467D01*
X107823000Y-113721344D01*
X107505729Y-114038615D01*
X107505863Y-113885008D01*
X107187514Y-113114545D01*
X107103485Y-113030369D01*
X107185442Y-112948555D01*
X107505135Y-112178649D01*
X107505863Y-111345008D01*
X107187514Y-110574545D01*
X107103485Y-110490369D01*
X107185442Y-110408555D01*
X107505135Y-109638649D01*
X107505863Y-108805008D01*
X107187514Y-108034545D01*
X107103485Y-107950369D01*
X107185442Y-107868555D01*
X107505135Y-107098649D01*
X107505863Y-106265008D01*
X107187514Y-105494545D01*
X106598555Y-104904558D01*
X105828649Y-104584865D01*
X104995008Y-104584137D01*
X104224545Y-104902486D01*
X103634558Y-105491445D01*
X103314865Y-106261351D01*
X103314137Y-107094992D01*
X103632486Y-107865455D01*
X103716515Y-107949631D01*
X103634558Y-108031445D01*
X103314865Y-108801351D01*
X103314137Y-109634992D01*
X103632486Y-110405455D01*
X103716515Y-110489631D01*
X103634558Y-110571445D01*
X103314865Y-111341351D01*
X103314137Y-112174992D01*
X103632486Y-112945455D01*
X103716515Y-113029631D01*
X103634558Y-113111445D01*
X103314865Y-113881351D01*
X103314137Y-114714992D01*
X103632486Y-115485455D01*
X104221445Y-116075442D01*
X104991351Y-116395135D01*
X105149071Y-116395273D01*
X102048767Y-119495577D01*
X101482538Y-118928359D01*
X100735963Y-118618354D01*
X99927584Y-118617648D01*
X99180468Y-118926350D01*
X98608359Y-119497462D01*
X98298354Y-120244037D01*
X98297648Y-121052416D01*
X98603651Y-121793000D01*
X94435602Y-121793000D01*
X94741646Y-121055963D01*
X94742352Y-120247584D01*
X94433650Y-119500468D01*
X93862538Y-118928359D01*
X93115963Y-118618354D01*
X92307584Y-118617648D01*
X91560468Y-118926350D01*
X90988359Y-119497462D01*
X90678354Y-120244037D01*
X90677648Y-121052416D01*
X90986350Y-121799532D01*
X91557462Y-122371641D01*
X92304037Y-122681646D01*
X92512516Y-122681828D01*
X91722172Y-123472172D01*
X91419340Y-123925391D01*
X91364280Y-124202196D01*
X90988359Y-124577462D01*
X90678354Y-125324037D01*
X90677648Y-126132416D01*
X90986350Y-126879532D01*
X91557462Y-127451641D01*
X92304037Y-127761646D01*
X93112416Y-127762352D01*
X93859532Y-127453650D01*
X94431641Y-126882538D01*
X94741646Y-126135963D01*
X94742352Y-125327584D01*
X94472109Y-124673547D01*
X94558656Y-124587000D01*
X98604398Y-124587000D01*
X98298354Y-125324037D01*
X98297648Y-126132416D01*
X98606350Y-126879532D01*
X99175085Y-127449259D01*
X98072172Y-128552172D01*
X97769340Y-129005391D01*
X97663000Y-129540000D01*
X97663000Y-133350000D01*
X97769340Y-133884609D01*
X98072172Y-134337828D01*
X100612172Y-136877828D01*
X101065391Y-137180660D01*
X101600000Y-137287000D01*
X103307344Y-137287000D01*
X101882172Y-138712172D01*
X101579340Y-139165391D01*
X101473000Y-139700000D01*
X101473000Y-143510000D01*
X101579340Y-144044609D01*
X101882172Y-144497828D01*
X103486344Y-146102000D01*
X88848000Y-146102000D01*
X88848000Y-142783223D01*
X91236524Y-142783223D01*
X91653241Y-143791755D01*
X92424186Y-144564047D01*
X93431990Y-144982523D01*
X94523223Y-144983476D01*
X95531755Y-144566759D01*
X96304047Y-143795814D01*
X96722523Y-142788010D01*
X96723476Y-141696777D01*
X96306759Y-140688245D01*
X95535814Y-139915953D01*
X94528010Y-139497477D01*
X93436777Y-139496524D01*
X92428245Y-139913241D01*
X91655953Y-140684186D01*
X91237477Y-141691990D01*
X91236524Y-142783223D01*
X88848000Y-142783223D01*
X88848000Y-113683656D01*
X90678049Y-115513705D01*
X90677648Y-115972416D01*
X90986350Y-116719532D01*
X91557462Y-117291641D01*
X92304037Y-117601646D01*
X93112416Y-117602352D01*
X93859532Y-117293650D01*
X94431641Y-116722538D01*
X94741646Y-115975963D01*
X94741649Y-115972416D01*
X98297648Y-115972416D01*
X98606350Y-116719532D01*
X99177462Y-117291641D01*
X99924037Y-117601646D01*
X100732416Y-117602352D01*
X101479532Y-117293650D01*
X102051641Y-116722538D01*
X102361646Y-115975963D01*
X102362352Y-115167584D01*
X102053650Y-114420468D01*
X101482538Y-113848359D01*
X100735963Y-113538354D01*
X99927584Y-113537648D01*
X99180468Y-113846350D01*
X98608359Y-114417462D01*
X98298354Y-115164037D01*
X98297648Y-115972416D01*
X94741649Y-115972416D01*
X94742352Y-115167584D01*
X94433650Y-114420468D01*
X93862538Y-113848359D01*
X93115963Y-113538354D01*
X92653606Y-113537950D01*
X90297000Y-111181344D01*
X90297000Y-105812416D01*
X90677648Y-105812416D01*
X90986350Y-106559532D01*
X91557462Y-107131641D01*
X91999204Y-107315068D01*
X91560468Y-107496350D01*
X90988359Y-108067462D01*
X90678354Y-108814037D01*
X90677648Y-109622416D01*
X90986350Y-110369532D01*
X91557462Y-110941641D01*
X92304037Y-111251646D01*
X93112416Y-111252352D01*
X93859532Y-110943650D01*
X94431641Y-110372538D01*
X94741646Y-109625963D01*
X94742352Y-108817584D01*
X94433650Y-108070468D01*
X93862538Y-107498359D01*
X93420796Y-107314932D01*
X93859532Y-107133650D01*
X94431641Y-106562538D01*
X94741646Y-105815963D01*
X94741649Y-105812416D01*
X98297648Y-105812416D01*
X98606350Y-106559532D01*
X99177462Y-107131641D01*
X99619204Y-107315068D01*
X99180468Y-107496350D01*
X98608359Y-108067462D01*
X98298354Y-108814037D01*
X98297648Y-109622416D01*
X98606350Y-110369532D01*
X99177462Y-110941641D01*
X99924037Y-111251646D01*
X100732416Y-111252352D01*
X101479532Y-110943650D01*
X102051641Y-110372538D01*
X102361646Y-109625963D01*
X102362352Y-108817584D01*
X102053650Y-108070468D01*
X101482538Y-107498359D01*
X101040796Y-107314932D01*
X101479532Y-107133650D01*
X102051641Y-106562538D01*
X102361646Y-105815963D01*
X102362352Y-105007584D01*
X102053650Y-104260468D01*
X101482538Y-103688359D01*
X100735963Y-103378354D01*
X99927584Y-103377648D01*
X99180468Y-103686350D01*
X98608359Y-104257462D01*
X98298354Y-105004037D01*
X98297648Y-105812416D01*
X94741649Y-105812416D01*
X94742352Y-105007584D01*
X94433650Y-104260468D01*
X93862538Y-103688359D01*
X93115963Y-103378354D01*
X92307584Y-103377648D01*
X91560468Y-103686350D01*
X90988359Y-104257462D01*
X90678354Y-105004037D01*
X90677648Y-105812416D01*
X90297000Y-105812416D01*
X90297000Y-100732416D01*
X90677648Y-100732416D01*
X90986350Y-101479532D01*
X91557462Y-102051641D01*
X92304037Y-102361646D01*
X93112416Y-102362352D01*
X93859532Y-102053650D01*
X94431641Y-101482538D01*
X94741646Y-100735963D01*
X94741649Y-100732416D01*
X98297648Y-100732416D01*
X98606350Y-101479532D01*
X99177462Y-102051641D01*
X99924037Y-102361646D01*
X100732416Y-102362352D01*
X101479532Y-102053650D01*
X101518257Y-102014992D01*
X103314137Y-102014992D01*
X103632486Y-102785455D01*
X104221445Y-103375442D01*
X104991351Y-103695135D01*
X105824992Y-103695863D01*
X106595455Y-103377514D01*
X107185442Y-102788555D01*
X107505135Y-102018649D01*
X107505863Y-101185008D01*
X107187514Y-100414545D01*
X106598555Y-99824558D01*
X105828649Y-99504865D01*
X104995008Y-99504137D01*
X104224545Y-99822486D01*
X103634558Y-100411445D01*
X103314865Y-101181351D01*
X103314137Y-102014992D01*
X101518257Y-102014992D01*
X102051641Y-101482538D01*
X102361646Y-100735963D01*
X102362352Y-99927584D01*
X102053650Y-99180468D01*
X101482538Y-98608359D01*
X100735963Y-98298354D01*
X99927584Y-98297648D01*
X99180468Y-98606350D01*
X98608359Y-99177462D01*
X98298354Y-99924037D01*
X98297648Y-100732416D01*
X94741649Y-100732416D01*
X94742352Y-99927584D01*
X94433650Y-99180468D01*
X93862538Y-98608359D01*
X93115963Y-98298354D01*
X92307584Y-98297648D01*
X91560468Y-98606350D01*
X90988359Y-99177462D01*
X90678354Y-99924037D01*
X90677648Y-100732416D01*
X90297000Y-100732416D01*
X90297000Y-89478656D01*
X90677827Y-89097829D01*
X90677648Y-89302416D01*
X90986350Y-90049532D01*
X91557462Y-90621641D01*
X92304037Y-90931646D01*
X93112416Y-90932352D01*
X93859532Y-90623650D01*
X94431641Y-90052538D01*
X94741646Y-89305963D01*
X94742352Y-88497584D01*
X94433650Y-87750468D01*
X93862538Y-87178359D01*
X93115963Y-86868354D01*
X92907484Y-86868172D01*
X97251056Y-82524600D01*
X101320600Y-82524600D01*
X101320600Y-82842100D01*
X101480375Y-83391342D01*
X101838173Y-83837632D01*
X102339523Y-84113027D01*
X102428056Y-84132288D01*
X102654100Y-84010640D01*
X102654100Y-82524600D01*
X101320600Y-82524600D01*
X97251056Y-82524600D01*
X100299056Y-79476600D01*
X101320600Y-79476600D01*
X101320600Y-79794100D01*
X101480375Y-80343342D01*
X101838173Y-80789632D01*
X101991035Y-80873600D01*
X101838173Y-80957568D01*
X101480375Y-81403858D01*
X101320600Y-81953100D01*
X101320600Y-82270600D01*
X102654100Y-82270600D01*
X102654100Y-79476600D01*
X101320600Y-79476600D01*
X100299056Y-79476600D01*
X100908656Y-78867000D01*
X101331683Y-78867000D01*
X101320600Y-78905100D01*
X101320600Y-78905100D01*
G37*
X101320600Y-78905100D02*
X101320600Y-79222600D01*
X102654100Y-79222600D01*
X102654100Y-79202600D01*
X102908100Y-79202600D01*
X102908100Y-79222600D01*
X102928100Y-79222600D01*
X102928100Y-79476600D01*
X102908100Y-79476600D01*
X102908100Y-82270600D01*
X102928100Y-82270600D01*
X102928100Y-82524600D01*
X102908100Y-82524600D01*
X102908100Y-84010640D01*
X103134144Y-84132288D01*
X103222677Y-84113027D01*
X103720513Y-83839562D01*
X103929160Y-84151825D01*
X104567788Y-84578542D01*
X105321100Y-84728385D01*
X106074412Y-84578542D01*
X106591100Y-84233303D01*
X107107788Y-84578542D01*
X107861100Y-84728385D01*
X108614412Y-84578542D01*
X109131100Y-84233303D01*
X109647788Y-84578542D01*
X110401100Y-84728385D01*
X111154412Y-84578542D01*
X111671100Y-84233303D01*
X112187788Y-84578542D01*
X112941100Y-84728385D01*
X113694412Y-84578542D01*
X114084100Y-84318161D01*
X114084100Y-92621100D01*
X114190440Y-93155709D01*
X114493272Y-93608928D01*
X115308615Y-94424271D01*
X115155008Y-94424137D01*
X114384545Y-94742486D01*
X113794558Y-95331445D01*
X113474865Y-96101351D01*
X113474137Y-96934992D01*
X113792486Y-97705455D01*
X113876515Y-97789631D01*
X113794558Y-97871445D01*
X113474865Y-98641351D01*
X113474727Y-98799071D01*
X102587828Y-87912172D01*
X102134609Y-87609340D01*
X101857804Y-87554280D01*
X101482538Y-87178359D01*
X100735963Y-86868354D01*
X99927584Y-86867648D01*
X99180468Y-87176350D01*
X98608359Y-87747462D01*
X98298354Y-88494037D01*
X98297648Y-89302416D01*
X98606350Y-90049532D01*
X99177462Y-90621641D01*
X99924037Y-90931646D01*
X100732416Y-90932352D01*
X101386453Y-90662109D01*
X105148615Y-94424271D01*
X104995008Y-94424137D01*
X104224545Y-94742486D01*
X103634558Y-95331445D01*
X103314865Y-96101351D01*
X103314137Y-96934992D01*
X103632486Y-97705455D01*
X104221445Y-98295442D01*
X104991351Y-98615135D01*
X105824992Y-98615863D01*
X106595455Y-98297514D01*
X107185442Y-97708555D01*
X107505135Y-96938649D01*
X107505273Y-96780929D01*
X109403503Y-98679159D01*
X108893037Y-98678714D01*
X108286005Y-98929534D01*
X107821166Y-99393563D01*
X107569287Y-100000155D01*
X107568714Y-100656963D01*
X107819534Y-101263995D01*
X107823000Y-101267467D01*
X107823000Y-113721344D01*
X107505729Y-114038615D01*
X107505863Y-113885008D01*
X107187514Y-113114545D01*
X107103485Y-113030369D01*
X107185442Y-112948555D01*
X107505135Y-112178649D01*
X107505863Y-111345008D01*
X107187514Y-110574545D01*
X107103485Y-110490369D01*
X107185442Y-110408555D01*
X107505135Y-109638649D01*
X107505863Y-108805008D01*
X107187514Y-108034545D01*
X107103485Y-107950369D01*
X107185442Y-107868555D01*
X107505135Y-107098649D01*
X107505863Y-106265008D01*
X107187514Y-105494545D01*
X106598555Y-104904558D01*
X105828649Y-104584865D01*
X104995008Y-104584137D01*
X104224545Y-104902486D01*
X103634558Y-105491445D01*
X103314865Y-106261351D01*
X103314137Y-107094992D01*
X103632486Y-107865455D01*
X103716515Y-107949631D01*
X103634558Y-108031445D01*
X103314865Y-108801351D01*
X103314137Y-109634992D01*
X103632486Y-110405455D01*
X103716515Y-110489631D01*
X103634558Y-110571445D01*
X103314865Y-111341351D01*
X103314137Y-112174992D01*
X103632486Y-112945455D01*
X103716515Y-113029631D01*
X103634558Y-113111445D01*
X103314865Y-113881351D01*
X103314137Y-114714992D01*
X103632486Y-115485455D01*
X104221445Y-116075442D01*
X104991351Y-116395135D01*
X105149071Y-116395273D01*
X102048767Y-119495577D01*
X101482538Y-118928359D01*
X100735963Y-118618354D01*
X99927584Y-118617648D01*
X99180468Y-118926350D01*
X98608359Y-119497462D01*
X98298354Y-120244037D01*
X98297648Y-121052416D01*
X98603651Y-121793000D01*
X94435602Y-121793000D01*
X94741646Y-121055963D01*
X94742352Y-120247584D01*
X94433650Y-119500468D01*
X93862538Y-118928359D01*
X93115963Y-118618354D01*
X92307584Y-118617648D01*
X91560468Y-118926350D01*
X90988359Y-119497462D01*
X90678354Y-120244037D01*
X90677648Y-121052416D01*
X90986350Y-121799532D01*
X91557462Y-122371641D01*
X92304037Y-122681646D01*
X92512516Y-122681828D01*
X91722172Y-123472172D01*
X91419340Y-123925391D01*
X91364280Y-124202196D01*
X90988359Y-124577462D01*
X90678354Y-125324037D01*
X90677648Y-126132416D01*
X90986350Y-126879532D01*
X91557462Y-127451641D01*
X92304037Y-127761646D01*
X93112416Y-127762352D01*
X93859532Y-127453650D01*
X94431641Y-126882538D01*
X94741646Y-126135963D01*
X94742352Y-125327584D01*
X94472109Y-124673547D01*
X94558656Y-124587000D01*
X98604398Y-124587000D01*
X98298354Y-125324037D01*
X98297648Y-126132416D01*
X98606350Y-126879532D01*
X99175085Y-127449259D01*
X98072172Y-128552172D01*
X97769340Y-129005391D01*
X97663000Y-129540000D01*
X97663000Y-133350000D01*
X97769340Y-133884609D01*
X98072172Y-134337828D01*
X100612172Y-136877828D01*
X101065391Y-137180660D01*
X101600000Y-137287000D01*
X103307344Y-137287000D01*
X101882172Y-138712172D01*
X101579340Y-139165391D01*
X101473000Y-139700000D01*
X101473000Y-143510000D01*
X101579340Y-144044609D01*
X101882172Y-144497828D01*
X103486344Y-146102000D01*
X88848000Y-146102000D01*
X88848000Y-142783223D01*
X91236524Y-142783223D01*
X91653241Y-143791755D01*
X92424186Y-144564047D01*
X93431990Y-144982523D01*
X94523223Y-144983476D01*
X95531755Y-144566759D01*
X96304047Y-143795814D01*
X96722523Y-142788010D01*
X96723476Y-141696777D01*
X96306759Y-140688245D01*
X95535814Y-139915953D01*
X94528010Y-139497477D01*
X93436777Y-139496524D01*
X92428245Y-139913241D01*
X91655953Y-140684186D01*
X91237477Y-141691990D01*
X91236524Y-142783223D01*
X88848000Y-142783223D01*
X88848000Y-113683656D01*
X90678049Y-115513705D01*
X90677648Y-115972416D01*
X90986350Y-116719532D01*
X91557462Y-117291641D01*
X92304037Y-117601646D01*
X93112416Y-117602352D01*
X93859532Y-117293650D01*
X94431641Y-116722538D01*
X94741646Y-115975963D01*
X94741649Y-115972416D01*
X98297648Y-115972416D01*
X98606350Y-116719532D01*
X99177462Y-117291641D01*
X99924037Y-117601646D01*
X100732416Y-117602352D01*
X101479532Y-117293650D01*
X102051641Y-116722538D01*
X102361646Y-115975963D01*
X102362352Y-115167584D01*
X102053650Y-114420468D01*
X101482538Y-113848359D01*
X100735963Y-113538354D01*
X99927584Y-113537648D01*
X99180468Y-113846350D01*
X98608359Y-114417462D01*
X98298354Y-115164037D01*
X98297648Y-115972416D01*
X94741649Y-115972416D01*
X94742352Y-115167584D01*
X94433650Y-114420468D01*
X93862538Y-113848359D01*
X93115963Y-113538354D01*
X92653606Y-113537950D01*
X90297000Y-111181344D01*
X90297000Y-105812416D01*
X90677648Y-105812416D01*
X90986350Y-106559532D01*
X91557462Y-107131641D01*
X91999204Y-107315068D01*
X91560468Y-107496350D01*
X90988359Y-108067462D01*
X90678354Y-108814037D01*
X90677648Y-109622416D01*
X90986350Y-110369532D01*
X91557462Y-110941641D01*
X92304037Y-111251646D01*
X93112416Y-111252352D01*
X93859532Y-110943650D01*
X94431641Y-110372538D01*
X94741646Y-109625963D01*
X94742352Y-108817584D01*
X94433650Y-108070468D01*
X93862538Y-107498359D01*
X93420796Y-107314932D01*
X93859532Y-107133650D01*
X94431641Y-106562538D01*
X94741646Y-105815963D01*
X94741649Y-105812416D01*
X98297648Y-105812416D01*
X98606350Y-106559532D01*
X99177462Y-107131641D01*
X99619204Y-107315068D01*
X99180468Y-107496350D01*
X98608359Y-108067462D01*
X98298354Y-108814037D01*
X98297648Y-109622416D01*
X98606350Y-110369532D01*
X99177462Y-110941641D01*
X99924037Y-111251646D01*
X100732416Y-111252352D01*
X101479532Y-110943650D01*
X102051641Y-110372538D01*
X102361646Y-109625963D01*
X102362352Y-108817584D01*
X102053650Y-108070468D01*
X101482538Y-107498359D01*
X101040796Y-107314932D01*
X101479532Y-107133650D01*
X102051641Y-106562538D01*
X102361646Y-105815963D01*
X102362352Y-105007584D01*
X102053650Y-104260468D01*
X101482538Y-103688359D01*
X100735963Y-103378354D01*
X99927584Y-103377648D01*
X99180468Y-103686350D01*
X98608359Y-104257462D01*
X98298354Y-105004037D01*
X98297648Y-105812416D01*
X94741649Y-105812416D01*
X94742352Y-105007584D01*
X94433650Y-104260468D01*
X93862538Y-103688359D01*
X93115963Y-103378354D01*
X92307584Y-103377648D01*
X91560468Y-103686350D01*
X90988359Y-104257462D01*
X90678354Y-105004037D01*
X90677648Y-105812416D01*
X90297000Y-105812416D01*
X90297000Y-100732416D01*
X90677648Y-100732416D01*
X90986350Y-101479532D01*
X91557462Y-102051641D01*
X92304037Y-102361646D01*
X93112416Y-102362352D01*
X93859532Y-102053650D01*
X94431641Y-101482538D01*
X94741646Y-100735963D01*
X94741649Y-100732416D01*
X98297648Y-100732416D01*
X98606350Y-101479532D01*
X99177462Y-102051641D01*
X99924037Y-102361646D01*
X100732416Y-102362352D01*
X101479532Y-102053650D01*
X101518257Y-102014992D01*
X103314137Y-102014992D01*
X103632486Y-102785455D01*
X104221445Y-103375442D01*
X104991351Y-103695135D01*
X105824992Y-103695863D01*
X106595455Y-103377514D01*
X107185442Y-102788555D01*
X107505135Y-102018649D01*
X107505863Y-101185008D01*
X107187514Y-100414545D01*
X106598555Y-99824558D01*
X105828649Y-99504865D01*
X104995008Y-99504137D01*
X104224545Y-99822486D01*
X103634558Y-100411445D01*
X103314865Y-101181351D01*
X103314137Y-102014992D01*
X101518257Y-102014992D01*
X102051641Y-101482538D01*
X102361646Y-100735963D01*
X102362352Y-99927584D01*
X102053650Y-99180468D01*
X101482538Y-98608359D01*
X100735963Y-98298354D01*
X99927584Y-98297648D01*
X99180468Y-98606350D01*
X98608359Y-99177462D01*
X98298354Y-99924037D01*
X98297648Y-100732416D01*
X94741649Y-100732416D01*
X94742352Y-99927584D01*
X94433650Y-99180468D01*
X93862538Y-98608359D01*
X93115963Y-98298354D01*
X92307584Y-98297648D01*
X91560468Y-98606350D01*
X90988359Y-99177462D01*
X90678354Y-99924037D01*
X90677648Y-100732416D01*
X90297000Y-100732416D01*
X90297000Y-89478656D01*
X90677827Y-89097829D01*
X90677648Y-89302416D01*
X90986350Y-90049532D01*
X91557462Y-90621641D01*
X92304037Y-90931646D01*
X93112416Y-90932352D01*
X93859532Y-90623650D01*
X94431641Y-90052538D01*
X94741646Y-89305963D01*
X94742352Y-88497584D01*
X94433650Y-87750468D01*
X93862538Y-87178359D01*
X93115963Y-86868354D01*
X92907484Y-86868172D01*
X97251056Y-82524600D01*
X101320600Y-82524600D01*
X101320600Y-82842100D01*
X101480375Y-83391342D01*
X101838173Y-83837632D01*
X102339523Y-84113027D01*
X102428056Y-84132288D01*
X102654100Y-84010640D01*
X102654100Y-82524600D01*
X101320600Y-82524600D01*
X97251056Y-82524600D01*
X100299056Y-79476600D01*
X101320600Y-79476600D01*
X101320600Y-79794100D01*
X101480375Y-80343342D01*
X101838173Y-80789632D01*
X101991035Y-80873600D01*
X101838173Y-80957568D01*
X101480375Y-81403858D01*
X101320600Y-81953100D01*
X101320600Y-82270600D01*
X102654100Y-82270600D01*
X102654100Y-79476600D01*
X101320600Y-79476600D01*
X100299056Y-79476600D01*
X100908656Y-78867000D01*
X101331683Y-78867000D01*
X101320600Y-78905100D01*
G36*
X92428245Y-68793241D02*
X91655953Y-69564186D01*
X91237477Y-70571990D01*
X91236524Y-71663223D01*
X91653241Y-72671755D01*
X92424186Y-73444047D01*
X93431990Y-73862523D01*
X94523223Y-73863476D01*
X95531755Y-73446759D01*
X96304047Y-72675814D01*
X96722523Y-71668010D01*
X96723476Y-70576777D01*
X96306759Y-69568245D01*
X95535814Y-68795953D01*
X94890510Y-68528000D01*
X192130177Y-68528000D01*
X191488245Y-68793241D01*
X190715953Y-69564186D01*
X190297477Y-70571990D01*
X190296524Y-71663223D01*
X190713241Y-72671755D01*
X191484186Y-73444047D01*
X192491990Y-73862523D01*
X193583223Y-73863476D01*
X194591755Y-73446759D01*
X195364047Y-72675814D01*
X195782523Y-71668010D01*
X195783476Y-70576777D01*
X195366759Y-69568245D01*
X194595814Y-68795953D01*
X193950510Y-68528000D01*
X198172000Y-68528000D01*
X198172000Y-146102000D01*
X176044392Y-146102000D01*
X176044392Y-145161000D01*
X175964692Y-144737430D01*
X175714362Y-144348406D01*
X175332403Y-144087424D01*
X174879000Y-143995608D01*
X173101000Y-143995608D01*
X172677430Y-144075308D01*
X172288406Y-144325638D01*
X172027424Y-144707597D01*
X171935608Y-145161000D01*
X171935608Y-146102000D01*
X169563656Y-146102000D01*
X172437828Y-143227828D01*
X172734904Y-142783223D01*
X190296524Y-142783223D01*
X190713241Y-143791755D01*
X191484186Y-144564047D01*
X192491990Y-144982523D01*
X193583223Y-144983476D01*
X194591755Y-144566759D01*
X195364047Y-143795814D01*
X195782523Y-142788010D01*
X195783476Y-141696777D01*
X195366759Y-140688245D01*
X194595814Y-139915953D01*
X193588010Y-139497477D01*
X192496777Y-139496524D01*
X191488245Y-139913241D01*
X190715953Y-140684186D01*
X190297477Y-141691990D01*
X190296524Y-142783223D01*
X172734904Y-142783223D01*
X172740660Y-142774609D01*
X172847000Y-142240000D01*
X172847000Y-137615602D01*
X173584037Y-137921646D01*
X174392416Y-137922352D01*
X175139532Y-137613650D01*
X175711641Y-137042538D01*
X176021646Y-136295963D01*
X176022352Y-135487584D01*
X175713650Y-134740468D01*
X175142538Y-134168359D01*
X175102244Y-134151627D01*
X175280660Y-133884609D01*
X175286023Y-133857648D01*
X175387000Y-133350000D01*
X175387000Y-133070600D01*
X190219400Y-133070600D01*
X190219400Y-133388100D01*
X190379175Y-133937342D01*
X190736973Y-134383632D01*
X191238323Y-134659027D01*
X191326856Y-134678288D01*
X191552900Y-134556640D01*
X191552900Y-133070600D01*
X191806900Y-133070600D01*
X191806900Y-134556640D01*
X192032944Y-134678288D01*
X192121477Y-134659027D01*
X192622827Y-134383632D01*
X192836055Y-134117668D01*
X192919573Y-134319299D01*
X193098202Y-134497927D01*
X193331591Y-134594600D01*
X193934150Y-134594600D01*
X194092900Y-134435850D01*
X194092900Y-133070600D01*
X194346900Y-133070600D01*
X194346900Y-134435850D01*
X194505650Y-134594600D01*
X195108209Y-134594600D01*
X195341598Y-134497927D01*
X195520227Y-134319299D01*
X195616900Y-134085910D01*
X195616900Y-133229350D01*
X195458150Y-133070600D01*
X194346900Y-133070600D01*
X194092900Y-133070600D01*
X191806900Y-133070600D01*
X191552900Y-133070600D01*
X190219400Y-133070600D01*
X175387000Y-133070600D01*
X175387000Y-132499100D01*
X190219400Y-132499100D01*
X190219400Y-132816600D01*
X191552900Y-132816600D01*
X191552900Y-131330560D01*
X191806900Y-131330560D01*
X191806900Y-132816600D01*
X194092900Y-132816600D01*
X194092900Y-131451350D01*
X194346900Y-131451350D01*
X194346900Y-132816600D01*
X195458150Y-132816600D01*
X195616900Y-132657850D01*
X195616900Y-131801290D01*
X195520227Y-131567901D01*
X195341598Y-131389273D01*
X195108209Y-131292600D01*
X194505650Y-131292600D01*
X194346900Y-131451350D01*
X194092900Y-131451350D01*
X193934150Y-131292600D01*
X193331591Y-131292600D01*
X193098202Y-131389273D01*
X192919573Y-131567901D01*
X192836055Y-131769532D01*
X192622827Y-131503568D01*
X192121477Y-131228173D01*
X192032944Y-131208912D01*
X191806900Y-131330560D01*
X191552900Y-131330560D01*
X191326856Y-131208912D01*
X191238323Y-131228173D01*
X190736973Y-131503568D01*
X190379175Y-131949858D01*
X190219400Y-132499100D01*
X175387000Y-132499100D01*
X175387000Y-130521845D01*
X178073906Y-130521845D01*
X178437402Y-131401573D01*
X179109886Y-132075232D01*
X179988979Y-132440263D01*
X180940845Y-132441094D01*
X181820573Y-132077598D01*
X182494232Y-131405114D01*
X182531965Y-131314244D01*
X182807597Y-131502576D01*
X183261000Y-131594392D01*
X185039000Y-131594392D01*
X185462570Y-131514692D01*
X185851594Y-131264362D01*
X186112576Y-130882403D01*
X186204392Y-130429000D01*
X186204392Y-128651000D01*
X186124692Y-128227430D01*
X185874362Y-127838406D01*
X185492403Y-127577424D01*
X185039000Y-127485608D01*
X183261000Y-127485608D01*
X182837430Y-127565308D01*
X182448406Y-127815638D01*
X182187424Y-128197597D01*
X182155923Y-128353156D01*
X181824114Y-128020768D01*
X180945021Y-127655737D01*
X179993155Y-127654906D01*
X179113427Y-128018402D01*
X178439768Y-128690886D01*
X178074737Y-129569979D01*
X178073906Y-130521845D01*
X175387000Y-130521845D01*
X175387000Y-124862416D01*
X175767648Y-124862416D01*
X176076350Y-125609532D01*
X176647462Y-126181641D01*
X177394037Y-126491646D01*
X178202416Y-126492352D01*
X178949532Y-126183650D01*
X179521641Y-125612538D01*
X179831646Y-124865963D01*
X179832352Y-124057584D01*
X179523650Y-123310468D01*
X178952538Y-122738359D01*
X178205963Y-122428354D01*
X177397584Y-122427648D01*
X176650468Y-122736350D01*
X176078359Y-123307462D01*
X175768354Y-124054037D01*
X175767648Y-124862416D01*
X175387000Y-124862416D01*
X175387000Y-120650000D01*
X175280660Y-120115391D01*
X175058173Y-119782416D01*
X175767648Y-119782416D01*
X176076350Y-120529532D01*
X176647462Y-121101641D01*
X177394037Y-121411646D01*
X178202416Y-121412352D01*
X178949532Y-121103650D01*
X179069709Y-120983682D01*
X179187462Y-121101641D01*
X179934037Y-121411646D01*
X180742416Y-121412352D01*
X181489532Y-121103650D01*
X182061641Y-120532538D01*
X182245068Y-120090796D01*
X182426350Y-120529532D01*
X182997462Y-121101641D01*
X183744037Y-121411646D01*
X184552416Y-121412352D01*
X185299532Y-121103650D01*
X185871641Y-120532538D01*
X186181646Y-119785963D01*
X186182352Y-118977584D01*
X185873650Y-118230468D01*
X185302538Y-117658359D01*
X184555963Y-117348354D01*
X183747584Y-117347648D01*
X183000468Y-117656350D01*
X182428359Y-118227462D01*
X182244932Y-118669204D01*
X182063650Y-118230468D01*
X181492538Y-117658359D01*
X180745963Y-117348354D01*
X179937584Y-117347648D01*
X179190468Y-117656350D01*
X179070291Y-117776318D01*
X178952538Y-117658359D01*
X178205963Y-117348354D01*
X177397584Y-117347648D01*
X176650468Y-117656350D01*
X176078359Y-118227462D01*
X175768354Y-118974037D01*
X175767648Y-119782416D01*
X175058173Y-119782416D01*
X174977828Y-119662172D01*
X171727156Y-116411500D01*
X191176108Y-116411500D01*
X191176108Y-117808500D01*
X191255808Y-118232070D01*
X191349891Y-118378279D01*
X191198820Y-118742096D01*
X191198181Y-119474690D01*
X191477942Y-120151763D01*
X191995512Y-120670237D01*
X192672096Y-120951180D01*
X193404690Y-120951819D01*
X194081763Y-120672058D01*
X194600237Y-120154488D01*
X194881180Y-119477904D01*
X194881819Y-118745310D01*
X194731067Y-118380463D01*
X194812076Y-118261903D01*
X194903892Y-117808500D01*
X194903892Y-116411500D01*
X194824192Y-115987930D01*
X194573862Y-115598906D01*
X194191903Y-115337924D01*
X193738500Y-115246108D01*
X192341500Y-115246108D01*
X191917930Y-115325808D01*
X191528906Y-115576138D01*
X191267924Y-115958097D01*
X191176108Y-116411500D01*
X171727156Y-116411500D01*
X167478072Y-112162416D01*
X191007648Y-112162416D01*
X191316350Y-112909532D01*
X191887462Y-113481641D01*
X192634037Y-113791646D01*
X193442416Y-113792352D01*
X194189532Y-113483650D01*
X194761641Y-112912538D01*
X195071646Y-112165963D01*
X195072352Y-111357584D01*
X194763650Y-110610468D01*
X194192538Y-110038359D01*
X193445963Y-109728354D01*
X192637584Y-109727648D01*
X191890468Y-110036350D01*
X191318359Y-110607462D01*
X191008354Y-111354037D01*
X191007648Y-112162416D01*
X167478072Y-112162416D01*
X166497000Y-111181344D01*
X166497000Y-101600000D01*
X167849215Y-101600000D01*
X167994224Y-102329012D01*
X168355702Y-102870000D01*
X167994224Y-103410988D01*
X167849215Y-104140000D01*
X167994224Y-104869012D01*
X168355702Y-105410000D01*
X167994224Y-105950988D01*
X167849215Y-106680000D01*
X167994224Y-107409012D01*
X168355702Y-107950000D01*
X167994224Y-108490988D01*
X167849215Y-109220000D01*
X167994224Y-109949012D01*
X168407177Y-110567038D01*
X169025203Y-110979991D01*
X169754215Y-111125000D01*
X170605785Y-111125000D01*
X171334797Y-110979991D01*
X171952823Y-110567038D01*
X172365776Y-109949012D01*
X172510785Y-109220000D01*
X172365776Y-108490988D01*
X172004298Y-107950000D01*
X172365776Y-107409012D01*
X172510785Y-106680000D01*
X172472491Y-106487480D01*
X180534073Y-106487480D01*
X180562852Y-107017199D01*
X180710200Y-107372929D01*
X180945812Y-107434583D01*
X181700395Y-106680000D01*
X180945812Y-105925417D01*
X180710200Y-105987071D01*
X180534073Y-106487480D01*
X172472491Y-106487480D01*
X172365776Y-105950988D01*
X172228682Y-105745812D01*
X181125417Y-105745812D01*
X181880000Y-106500395D01*
X181894143Y-106486253D01*
X182016108Y-106608218D01*
X182016108Y-106751782D01*
X181894143Y-106873748D01*
X181880000Y-106859605D01*
X181125417Y-107614188D01*
X181187071Y-107849800D01*
X181687480Y-108025927D01*
X182217199Y-107997148D01*
X182220466Y-107995795D01*
X182346138Y-108191094D01*
X182728097Y-108452076D01*
X183181500Y-108543892D01*
X184578500Y-108543892D01*
X185002070Y-108464192D01*
X185391094Y-108213862D01*
X185652076Y-107831903D01*
X185743892Y-107378500D01*
X185743892Y-107061764D01*
X191211678Y-101593978D01*
X191267177Y-101677038D01*
X191885203Y-102089991D01*
X192421933Y-102196753D01*
X191890468Y-102416350D01*
X191318359Y-102987462D01*
X191008354Y-103734037D01*
X191007648Y-104542416D01*
X191316350Y-105289532D01*
X191887462Y-105861641D01*
X192634037Y-106171646D01*
X193442416Y-106172352D01*
X194189532Y-105863650D01*
X194761641Y-105292538D01*
X195071646Y-104545963D01*
X195072352Y-103737584D01*
X194763650Y-102990468D01*
X194192538Y-102418359D01*
X193658597Y-102196647D01*
X194194797Y-102089991D01*
X194812823Y-101677038D01*
X195225776Y-101059012D01*
X195370785Y-100330000D01*
X195225776Y-99600988D01*
X194864298Y-99060000D01*
X195225776Y-98519012D01*
X195370785Y-97790000D01*
X195225776Y-97060988D01*
X194864298Y-96520000D01*
X195225776Y-95979012D01*
X195370785Y-95250000D01*
X195225776Y-94520988D01*
X194864298Y-93980000D01*
X195225776Y-93439012D01*
X195370785Y-92710000D01*
X195225776Y-91980988D01*
X194812823Y-91362962D01*
X194194797Y-90950009D01*
X193465785Y-90805000D01*
X192614215Y-90805000D01*
X191885203Y-90950009D01*
X191267177Y-91362962D01*
X190854224Y-91980988D01*
X190709215Y-92710000D01*
X190854224Y-93439012D01*
X191215702Y-93980000D01*
X190854224Y-94520988D01*
X190709215Y-95250000D01*
X190854224Y-95979012D01*
X191215702Y-96520000D01*
X190854224Y-97060988D01*
X190709215Y-97790000D01*
X190768135Y-98086209D01*
X184038236Y-104816108D01*
X183181500Y-104816108D01*
X182757930Y-104895808D01*
X182368906Y-105146138D01*
X182207931Y-105381733D01*
X182072520Y-105334073D01*
X181542801Y-105362852D01*
X181187071Y-105510200D01*
X181125417Y-105745812D01*
X172228682Y-105745812D01*
X172004298Y-105410000D01*
X172365776Y-104869012D01*
X172510785Y-104140000D01*
X172365776Y-103410988D01*
X172004298Y-102870000D01*
X172365776Y-102329012D01*
X172510785Y-101600000D01*
X172365776Y-100870988D01*
X172233532Y-100673070D01*
X183684780Y-100673070D01*
X183699740Y-100747277D01*
X183961370Y-101228026D01*
X184387059Y-101572059D01*
X184912000Y-101727000D01*
X185293000Y-101727000D01*
X185293000Y-100457000D01*
X185547000Y-100457000D01*
X185547000Y-101727000D01*
X185928000Y-101727000D01*
X186452941Y-101572059D01*
X186878630Y-101228026D01*
X187140260Y-100747277D01*
X187155220Y-100673070D01*
X187032720Y-100457000D01*
X185547000Y-100457000D01*
X185293000Y-100457000D01*
X183807280Y-100457000D01*
X183684780Y-100673070D01*
X172233532Y-100673070D01*
X171952823Y-100252962D01*
X171334797Y-99840009D01*
X170605785Y-99695000D01*
X169754215Y-99695000D01*
X169025203Y-99840009D01*
X168407177Y-100252962D01*
X167994224Y-100870988D01*
X167849215Y-101600000D01*
X166497000Y-101600000D01*
X166497000Y-97790000D01*
X183089215Y-97790000D01*
X183234224Y-98519012D01*
X183647177Y-99137038D01*
X184018943Y-99385445D01*
X183961370Y-99431974D01*
X183699740Y-99912723D01*
X183684780Y-99986930D01*
X183807280Y-100203000D01*
X185293000Y-100203000D01*
X185293000Y-100183000D01*
X185547000Y-100183000D01*
X185547000Y-100203000D01*
X187032720Y-100203000D01*
X187155220Y-99986930D01*
X187140260Y-99912723D01*
X186878630Y-99431974D01*
X186821057Y-99385445D01*
X187192823Y-99137038D01*
X187605776Y-98519012D01*
X187750785Y-97790000D01*
X187605776Y-97060988D01*
X187192823Y-96442962D01*
X186821057Y-96194555D01*
X186878630Y-96148026D01*
X187140260Y-95667277D01*
X187155220Y-95593070D01*
X187032720Y-95377000D01*
X185547000Y-95377000D01*
X185547000Y-95397000D01*
X185293000Y-95397000D01*
X185293000Y-95377000D01*
X183807280Y-95377000D01*
X183684780Y-95593070D01*
X183699740Y-95667277D01*
X183961370Y-96148026D01*
X184018943Y-96194555D01*
X183647177Y-96442962D01*
X183234224Y-97060988D01*
X183089215Y-97790000D01*
X166497000Y-97790000D01*
X166497000Y-96520000D01*
X166390660Y-95985391D01*
X166087828Y-95532172D01*
X164862619Y-94306963D01*
X165988714Y-94306963D01*
X166239534Y-94913995D01*
X166703563Y-95378834D01*
X167310155Y-95630713D01*
X167966963Y-95631286D01*
X168573995Y-95380466D01*
X169038834Y-94916437D01*
X169290713Y-94309845D01*
X169290717Y-94304939D01*
X169488656Y-94107000D01*
X175260000Y-94107000D01*
X175794609Y-94000660D01*
X176247828Y-93697828D01*
X177997656Y-91948000D01*
X183111608Y-91948000D01*
X183111608Y-93472000D01*
X183191308Y-93895570D01*
X183441638Y-94284594D01*
X183823597Y-94545576D01*
X183852792Y-94551488D01*
X183699740Y-94832723D01*
X183684780Y-94906930D01*
X183807280Y-95123000D01*
X185293000Y-95123000D01*
X185293000Y-95103000D01*
X185547000Y-95103000D01*
X185547000Y-95123000D01*
X187032720Y-95123000D01*
X187155220Y-94906930D01*
X187140260Y-94832723D01*
X186989543Y-94555779D01*
X187375594Y-94307362D01*
X187636576Y-93925403D01*
X187728392Y-93472000D01*
X187728392Y-91948000D01*
X187648692Y-91524430D01*
X187398362Y-91135406D01*
X187016403Y-90874424D01*
X186563000Y-90782608D01*
X184277000Y-90782608D01*
X183853430Y-90862308D01*
X183464406Y-91112638D01*
X183203424Y-91494597D01*
X183111608Y-91948000D01*
X177997656Y-91948000D01*
X180272714Y-89672942D01*
X180744595Y-89673354D01*
X181495755Y-89362981D01*
X182070961Y-88788778D01*
X182382645Y-88038161D01*
X182383354Y-87225405D01*
X182072981Y-86474245D01*
X181498778Y-85899039D01*
X180748161Y-85587355D01*
X179935405Y-85586646D01*
X179184245Y-85897019D01*
X179090340Y-85990761D01*
X178998778Y-85899039D01*
X178248161Y-85587355D01*
X177435405Y-85586646D01*
X176684245Y-85897019D01*
X176187636Y-86392762D01*
X176154148Y-86293357D01*
X175580664Y-86083542D01*
X174970540Y-86109161D01*
X174525852Y-86293357D01*
X174439446Y-86549841D01*
X175340000Y-87450395D01*
X175354143Y-87436253D01*
X175533748Y-87615858D01*
X175519605Y-87630000D01*
X175533748Y-87644143D01*
X175354143Y-87823748D01*
X175340000Y-87809605D01*
X174439446Y-88710159D01*
X174525852Y-88966643D01*
X175099336Y-89176458D01*
X175709460Y-89150839D01*
X176154148Y-88966643D01*
X176187819Y-88866696D01*
X176657323Y-89337021D01*
X174681344Y-91313000D01*
X168910000Y-91313000D01*
X168375391Y-91419340D01*
X167922172Y-91722172D01*
X167315628Y-92328716D01*
X167313037Y-92328714D01*
X166706005Y-92579534D01*
X166241166Y-93043563D01*
X165989287Y-93650155D01*
X165988714Y-94306963D01*
X164862619Y-94306963D01*
X164211284Y-93655628D01*
X164211286Y-93653037D01*
X163960466Y-93046005D01*
X163496437Y-92581166D01*
X162889845Y-92329287D01*
X162233037Y-92328714D01*
X161626005Y-92579534D01*
X161417000Y-92788175D01*
X161417000Y-90748656D01*
X164776320Y-87389336D01*
X173793542Y-87389336D01*
X173819161Y-87999460D01*
X174003357Y-88444148D01*
X174259841Y-88530554D01*
X175160395Y-87630000D01*
X174259841Y-86729446D01*
X174003357Y-86815852D01*
X173793542Y-87389336D01*
X164776320Y-87389336D01*
X167357828Y-84807828D01*
X167660660Y-84354609D01*
X167767000Y-83820000D01*
X167767000Y-81252439D01*
X170296456Y-81252439D01*
X170773941Y-82408041D01*
X171657309Y-83292952D01*
X172812076Y-83772453D01*
X174062439Y-83773544D01*
X175218041Y-83296059D01*
X176102952Y-82412691D01*
X176582453Y-81257924D01*
X176582457Y-81252439D01*
X179096456Y-81252439D01*
X179573941Y-82408041D01*
X180457309Y-83292952D01*
X181612076Y-83772453D01*
X182862439Y-83773544D01*
X184018041Y-83296059D01*
X184902952Y-82412691D01*
X185382453Y-81257924D01*
X185383544Y-80007561D01*
X185269107Y-79730600D01*
X190219400Y-79730600D01*
X190219400Y-80048100D01*
X190379175Y-80597342D01*
X190736973Y-81043632D01*
X191238323Y-81319027D01*
X191326856Y-81338288D01*
X191552900Y-81216640D01*
X191552900Y-79730600D01*
X191806900Y-79730600D01*
X191806900Y-81216640D01*
X192032944Y-81338288D01*
X192121477Y-81319027D01*
X192622827Y-81043632D01*
X192836055Y-80777668D01*
X192919573Y-80979299D01*
X193098202Y-81157927D01*
X193331591Y-81254600D01*
X193934150Y-81254600D01*
X194092900Y-81095850D01*
X194092900Y-79730600D01*
X194346900Y-79730600D01*
X194346900Y-81095850D01*
X194505650Y-81254600D01*
X195108209Y-81254600D01*
X195341598Y-81157927D01*
X195520227Y-80979299D01*
X195616900Y-80745910D01*
X195616900Y-79889350D01*
X195458150Y-79730600D01*
X194346900Y-79730600D01*
X194092900Y-79730600D01*
X191806900Y-79730600D01*
X191552900Y-79730600D01*
X190219400Y-79730600D01*
X185269107Y-79730600D01*
X185032968Y-79159100D01*
X190219400Y-79159100D01*
X190219400Y-79476600D01*
X191552900Y-79476600D01*
X191552900Y-77990560D01*
X191806900Y-77990560D01*
X191806900Y-79476600D01*
X194092900Y-79476600D01*
X194092900Y-78111350D01*
X194346900Y-78111350D01*
X194346900Y-79476600D01*
X195458150Y-79476600D01*
X195616900Y-79317850D01*
X195616900Y-78461290D01*
X195520227Y-78227901D01*
X195341598Y-78049273D01*
X195108209Y-77952600D01*
X194505650Y-77952600D01*
X194346900Y-78111350D01*
X194092900Y-78111350D01*
X193934150Y-77952600D01*
X193331591Y-77952600D01*
X193098202Y-78049273D01*
X192919573Y-78227901D01*
X192836055Y-78429532D01*
X192622827Y-78163568D01*
X192121477Y-77888173D01*
X192032944Y-77868912D01*
X191806900Y-77990560D01*
X191552900Y-77990560D01*
X191326856Y-77868912D01*
X191238323Y-77888173D01*
X190736973Y-78163568D01*
X190379175Y-78609858D01*
X190219400Y-79159100D01*
X185032968Y-79159100D01*
X184906059Y-78851959D01*
X184022691Y-77967048D01*
X182867924Y-77487547D01*
X181617561Y-77486456D01*
X180461959Y-77963941D01*
X179577048Y-78847309D01*
X179097547Y-80002076D01*
X179096456Y-81252439D01*
X176582457Y-81252439D01*
X176583544Y-80007561D01*
X176106059Y-78851959D01*
X175222691Y-77967048D01*
X174067924Y-77487547D01*
X172817561Y-77486456D01*
X171661959Y-77963941D01*
X170777048Y-78847309D01*
X170297547Y-80002076D01*
X170296456Y-81252439D01*
X167767000Y-81252439D01*
X167767000Y-77470000D01*
X167660660Y-76935391D01*
X167357828Y-76482172D01*
X164817828Y-73942172D01*
X164364609Y-73639340D01*
X163830000Y-73533000D01*
X145554700Y-73533000D01*
X145020091Y-73639340D01*
X144838557Y-73760637D01*
X144566872Y-73942171D01*
X141389168Y-77119876D01*
X140881100Y-77018815D01*
X140127788Y-77168658D01*
X139611100Y-77513897D01*
X139094412Y-77168658D01*
X138341100Y-77018815D01*
X137587788Y-77168658D01*
X136949160Y-77595375D01*
X136740513Y-77907638D01*
X136242677Y-77634173D01*
X136154144Y-77614912D01*
X135928100Y-77736560D01*
X135928100Y-79222600D01*
X135948100Y-79222600D01*
X135948100Y-79476600D01*
X135928100Y-79476600D01*
X135928100Y-79496600D01*
X135674100Y-79496600D01*
X135674100Y-79476600D01*
X135654100Y-79476600D01*
X135654100Y-79222600D01*
X135674100Y-79222600D01*
X135674100Y-77736560D01*
X135448056Y-77614912D01*
X135359523Y-77634173D01*
X134861687Y-77907638D01*
X134653040Y-77595375D01*
X134014412Y-77168658D01*
X133261100Y-77018815D01*
X132507788Y-77168658D01*
X131991100Y-77513897D01*
X131474412Y-77168658D01*
X130721100Y-77018815D01*
X129967788Y-77168658D01*
X129451100Y-77513897D01*
X128934412Y-77168658D01*
X128181100Y-77018815D01*
X127427788Y-77168658D01*
X126911100Y-77513897D01*
X126394412Y-77168658D01*
X125641100Y-77018815D01*
X125133032Y-77119876D01*
X124495328Y-76482172D01*
X124042109Y-76179340D01*
X123507500Y-76073000D01*
X100330000Y-76073000D01*
X99795391Y-76179340D01*
X99342172Y-76482172D01*
X88848000Y-86976344D01*
X88848000Y-68528000D01*
X93070177Y-68528000D01*
X92428245Y-68793241D01*
X92428245Y-68793241D01*
G37*
X92428245Y-68793241D02*
X91655953Y-69564186D01*
X91237477Y-70571990D01*
X91236524Y-71663223D01*
X91653241Y-72671755D01*
X92424186Y-73444047D01*
X93431990Y-73862523D01*
X94523223Y-73863476D01*
X95531755Y-73446759D01*
X96304047Y-72675814D01*
X96722523Y-71668010D01*
X96723476Y-70576777D01*
X96306759Y-69568245D01*
X95535814Y-68795953D01*
X94890510Y-68528000D01*
X192130177Y-68528000D01*
X191488245Y-68793241D01*
X190715953Y-69564186D01*
X190297477Y-70571990D01*
X190296524Y-71663223D01*
X190713241Y-72671755D01*
X191484186Y-73444047D01*
X192491990Y-73862523D01*
X193583223Y-73863476D01*
X194591755Y-73446759D01*
X195364047Y-72675814D01*
X195782523Y-71668010D01*
X195783476Y-70576777D01*
X195366759Y-69568245D01*
X194595814Y-68795953D01*
X193950510Y-68528000D01*
X198172000Y-68528000D01*
X198172000Y-146102000D01*
X176044392Y-146102000D01*
X176044392Y-145161000D01*
X175964692Y-144737430D01*
X175714362Y-144348406D01*
X175332403Y-144087424D01*
X174879000Y-143995608D01*
X173101000Y-143995608D01*
X172677430Y-144075308D01*
X172288406Y-144325638D01*
X172027424Y-144707597D01*
X171935608Y-145161000D01*
X171935608Y-146102000D01*
X169563656Y-146102000D01*
X172437828Y-143227828D01*
X172734904Y-142783223D01*
X190296524Y-142783223D01*
X190713241Y-143791755D01*
X191484186Y-144564047D01*
X192491990Y-144982523D01*
X193583223Y-144983476D01*
X194591755Y-144566759D01*
X195364047Y-143795814D01*
X195782523Y-142788010D01*
X195783476Y-141696777D01*
X195366759Y-140688245D01*
X194595814Y-139915953D01*
X193588010Y-139497477D01*
X192496777Y-139496524D01*
X191488245Y-139913241D01*
X190715953Y-140684186D01*
X190297477Y-141691990D01*
X190296524Y-142783223D01*
X172734904Y-142783223D01*
X172740660Y-142774609D01*
X172847000Y-142240000D01*
X172847000Y-137615602D01*
X173584037Y-137921646D01*
X174392416Y-137922352D01*
X175139532Y-137613650D01*
X175711641Y-137042538D01*
X176021646Y-136295963D01*
X176022352Y-135487584D01*
X175713650Y-134740468D01*
X175142538Y-134168359D01*
X175102244Y-134151627D01*
X175280660Y-133884609D01*
X175286023Y-133857648D01*
X175387000Y-133350000D01*
X175387000Y-133070600D01*
X190219400Y-133070600D01*
X190219400Y-133388100D01*
X190379175Y-133937342D01*
X190736973Y-134383632D01*
X191238323Y-134659027D01*
X191326856Y-134678288D01*
X191552900Y-134556640D01*
X191552900Y-133070600D01*
X191806900Y-133070600D01*
X191806900Y-134556640D01*
X192032944Y-134678288D01*
X192121477Y-134659027D01*
X192622827Y-134383632D01*
X192836055Y-134117668D01*
X192919573Y-134319299D01*
X193098202Y-134497927D01*
X193331591Y-134594600D01*
X193934150Y-134594600D01*
X194092900Y-134435850D01*
X194092900Y-133070600D01*
X194346900Y-133070600D01*
X194346900Y-134435850D01*
X194505650Y-134594600D01*
X195108209Y-134594600D01*
X195341598Y-134497927D01*
X195520227Y-134319299D01*
X195616900Y-134085910D01*
X195616900Y-133229350D01*
X195458150Y-133070600D01*
X194346900Y-133070600D01*
X194092900Y-133070600D01*
X191806900Y-133070600D01*
X191552900Y-133070600D01*
X190219400Y-133070600D01*
X175387000Y-133070600D01*
X175387000Y-132499100D01*
X190219400Y-132499100D01*
X190219400Y-132816600D01*
X191552900Y-132816600D01*
X191552900Y-131330560D01*
X191806900Y-131330560D01*
X191806900Y-132816600D01*
X194092900Y-132816600D01*
X194092900Y-131451350D01*
X194346900Y-131451350D01*
X194346900Y-132816600D01*
X195458150Y-132816600D01*
X195616900Y-132657850D01*
X195616900Y-131801290D01*
X195520227Y-131567901D01*
X195341598Y-131389273D01*
X195108209Y-131292600D01*
X194505650Y-131292600D01*
X194346900Y-131451350D01*
X194092900Y-131451350D01*
X193934150Y-131292600D01*
X193331591Y-131292600D01*
X193098202Y-131389273D01*
X192919573Y-131567901D01*
X192836055Y-131769532D01*
X192622827Y-131503568D01*
X192121477Y-131228173D01*
X192032944Y-131208912D01*
X191806900Y-131330560D01*
X191552900Y-131330560D01*
X191326856Y-131208912D01*
X191238323Y-131228173D01*
X190736973Y-131503568D01*
X190379175Y-131949858D01*
X190219400Y-132499100D01*
X175387000Y-132499100D01*
X175387000Y-130521845D01*
X178073906Y-130521845D01*
X178437402Y-131401573D01*
X179109886Y-132075232D01*
X179988979Y-132440263D01*
X180940845Y-132441094D01*
X181820573Y-132077598D01*
X182494232Y-131405114D01*
X182531965Y-131314244D01*
X182807597Y-131502576D01*
X183261000Y-131594392D01*
X185039000Y-131594392D01*
X185462570Y-131514692D01*
X185851594Y-131264362D01*
X186112576Y-130882403D01*
X186204392Y-130429000D01*
X186204392Y-128651000D01*
X186124692Y-128227430D01*
X185874362Y-127838406D01*
X185492403Y-127577424D01*
X185039000Y-127485608D01*
X183261000Y-127485608D01*
X182837430Y-127565308D01*
X182448406Y-127815638D01*
X182187424Y-128197597D01*
X182155923Y-128353156D01*
X181824114Y-128020768D01*
X180945021Y-127655737D01*
X179993155Y-127654906D01*
X179113427Y-128018402D01*
X178439768Y-128690886D01*
X178074737Y-129569979D01*
X178073906Y-130521845D01*
X175387000Y-130521845D01*
X175387000Y-124862416D01*
X175767648Y-124862416D01*
X176076350Y-125609532D01*
X176647462Y-126181641D01*
X177394037Y-126491646D01*
X178202416Y-126492352D01*
X178949532Y-126183650D01*
X179521641Y-125612538D01*
X179831646Y-124865963D01*
X179832352Y-124057584D01*
X179523650Y-123310468D01*
X178952538Y-122738359D01*
X178205963Y-122428354D01*
X177397584Y-122427648D01*
X176650468Y-122736350D01*
X176078359Y-123307462D01*
X175768354Y-124054037D01*
X175767648Y-124862416D01*
X175387000Y-124862416D01*
X175387000Y-120650000D01*
X175280660Y-120115391D01*
X175058173Y-119782416D01*
X175767648Y-119782416D01*
X176076350Y-120529532D01*
X176647462Y-121101641D01*
X177394037Y-121411646D01*
X178202416Y-121412352D01*
X178949532Y-121103650D01*
X179069709Y-120983682D01*
X179187462Y-121101641D01*
X179934037Y-121411646D01*
X180742416Y-121412352D01*
X181489532Y-121103650D01*
X182061641Y-120532538D01*
X182245068Y-120090796D01*
X182426350Y-120529532D01*
X182997462Y-121101641D01*
X183744037Y-121411646D01*
X184552416Y-121412352D01*
X185299532Y-121103650D01*
X185871641Y-120532538D01*
X186181646Y-119785963D01*
X186182352Y-118977584D01*
X185873650Y-118230468D01*
X185302538Y-117658359D01*
X184555963Y-117348354D01*
X183747584Y-117347648D01*
X183000468Y-117656350D01*
X182428359Y-118227462D01*
X182244932Y-118669204D01*
X182063650Y-118230468D01*
X181492538Y-117658359D01*
X180745963Y-117348354D01*
X179937584Y-117347648D01*
X179190468Y-117656350D01*
X179070291Y-117776318D01*
X178952538Y-117658359D01*
X178205963Y-117348354D01*
X177397584Y-117347648D01*
X176650468Y-117656350D01*
X176078359Y-118227462D01*
X175768354Y-118974037D01*
X175767648Y-119782416D01*
X175058173Y-119782416D01*
X174977828Y-119662172D01*
X171727156Y-116411500D01*
X191176108Y-116411500D01*
X191176108Y-117808500D01*
X191255808Y-118232070D01*
X191349891Y-118378279D01*
X191198820Y-118742096D01*
X191198181Y-119474690D01*
X191477942Y-120151763D01*
X191995512Y-120670237D01*
X192672096Y-120951180D01*
X193404690Y-120951819D01*
X194081763Y-120672058D01*
X194600237Y-120154488D01*
X194881180Y-119477904D01*
X194881819Y-118745310D01*
X194731067Y-118380463D01*
X194812076Y-118261903D01*
X194903892Y-117808500D01*
X194903892Y-116411500D01*
X194824192Y-115987930D01*
X194573862Y-115598906D01*
X194191903Y-115337924D01*
X193738500Y-115246108D01*
X192341500Y-115246108D01*
X191917930Y-115325808D01*
X191528906Y-115576138D01*
X191267924Y-115958097D01*
X191176108Y-116411500D01*
X171727156Y-116411500D01*
X167478072Y-112162416D01*
X191007648Y-112162416D01*
X191316350Y-112909532D01*
X191887462Y-113481641D01*
X192634037Y-113791646D01*
X193442416Y-113792352D01*
X194189532Y-113483650D01*
X194761641Y-112912538D01*
X195071646Y-112165963D01*
X195072352Y-111357584D01*
X194763650Y-110610468D01*
X194192538Y-110038359D01*
X193445963Y-109728354D01*
X192637584Y-109727648D01*
X191890468Y-110036350D01*
X191318359Y-110607462D01*
X191008354Y-111354037D01*
X191007648Y-112162416D01*
X167478072Y-112162416D01*
X166497000Y-111181344D01*
X166497000Y-101600000D01*
X167849215Y-101600000D01*
X167994224Y-102329012D01*
X168355702Y-102870000D01*
X167994224Y-103410988D01*
X167849215Y-104140000D01*
X167994224Y-104869012D01*
X168355702Y-105410000D01*
X167994224Y-105950988D01*
X167849215Y-106680000D01*
X167994224Y-107409012D01*
X168355702Y-107950000D01*
X167994224Y-108490988D01*
X167849215Y-109220000D01*
X167994224Y-109949012D01*
X168407177Y-110567038D01*
X169025203Y-110979991D01*
X169754215Y-111125000D01*
X170605785Y-111125000D01*
X171334797Y-110979991D01*
X171952823Y-110567038D01*
X172365776Y-109949012D01*
X172510785Y-109220000D01*
X172365776Y-108490988D01*
X172004298Y-107950000D01*
X172365776Y-107409012D01*
X172510785Y-106680000D01*
X172472491Y-106487480D01*
X180534073Y-106487480D01*
X180562852Y-107017199D01*
X180710200Y-107372929D01*
X180945812Y-107434583D01*
X181700395Y-106680000D01*
X180945812Y-105925417D01*
X180710200Y-105987071D01*
X180534073Y-106487480D01*
X172472491Y-106487480D01*
X172365776Y-105950988D01*
X172228682Y-105745812D01*
X181125417Y-105745812D01*
X181880000Y-106500395D01*
X181894143Y-106486253D01*
X182016108Y-106608218D01*
X182016108Y-106751782D01*
X181894143Y-106873748D01*
X181880000Y-106859605D01*
X181125417Y-107614188D01*
X181187071Y-107849800D01*
X181687480Y-108025927D01*
X182217199Y-107997148D01*
X182220466Y-107995795D01*
X182346138Y-108191094D01*
X182728097Y-108452076D01*
X183181500Y-108543892D01*
X184578500Y-108543892D01*
X185002070Y-108464192D01*
X185391094Y-108213862D01*
X185652076Y-107831903D01*
X185743892Y-107378500D01*
X185743892Y-107061764D01*
X191211678Y-101593978D01*
X191267177Y-101677038D01*
X191885203Y-102089991D01*
X192421933Y-102196753D01*
X191890468Y-102416350D01*
X191318359Y-102987462D01*
X191008354Y-103734037D01*
X191007648Y-104542416D01*
X191316350Y-105289532D01*
X191887462Y-105861641D01*
X192634037Y-106171646D01*
X193442416Y-106172352D01*
X194189532Y-105863650D01*
X194761641Y-105292538D01*
X195071646Y-104545963D01*
X195072352Y-103737584D01*
X194763650Y-102990468D01*
X194192538Y-102418359D01*
X193658597Y-102196647D01*
X194194797Y-102089991D01*
X194812823Y-101677038D01*
X195225776Y-101059012D01*
X195370785Y-100330000D01*
X195225776Y-99600988D01*
X194864298Y-99060000D01*
X195225776Y-98519012D01*
X195370785Y-97790000D01*
X195225776Y-97060988D01*
X194864298Y-96520000D01*
X195225776Y-95979012D01*
X195370785Y-95250000D01*
X195225776Y-94520988D01*
X194864298Y-93980000D01*
X195225776Y-93439012D01*
X195370785Y-92710000D01*
X195225776Y-91980988D01*
X194812823Y-91362962D01*
X194194797Y-90950009D01*
X193465785Y-90805000D01*
X192614215Y-90805000D01*
X191885203Y-90950009D01*
X191267177Y-91362962D01*
X190854224Y-91980988D01*
X190709215Y-92710000D01*
X190854224Y-93439012D01*
X191215702Y-93980000D01*
X190854224Y-94520988D01*
X190709215Y-95250000D01*
X190854224Y-95979012D01*
X191215702Y-96520000D01*
X190854224Y-97060988D01*
X190709215Y-97790000D01*
X190768135Y-98086209D01*
X184038236Y-104816108D01*
X183181500Y-104816108D01*
X182757930Y-104895808D01*
X182368906Y-105146138D01*
X182207931Y-105381733D01*
X182072520Y-105334073D01*
X181542801Y-105362852D01*
X181187071Y-105510200D01*
X181125417Y-105745812D01*
X172228682Y-105745812D01*
X172004298Y-105410000D01*
X172365776Y-104869012D01*
X172510785Y-104140000D01*
X172365776Y-103410988D01*
X172004298Y-102870000D01*
X172365776Y-102329012D01*
X172510785Y-101600000D01*
X172365776Y-100870988D01*
X172233532Y-100673070D01*
X183684780Y-100673070D01*
X183699740Y-100747277D01*
X183961370Y-101228026D01*
X184387059Y-101572059D01*
X184912000Y-101727000D01*
X185293000Y-101727000D01*
X185293000Y-100457000D01*
X185547000Y-100457000D01*
X185547000Y-101727000D01*
X185928000Y-101727000D01*
X186452941Y-101572059D01*
X186878630Y-101228026D01*
X187140260Y-100747277D01*
X187155220Y-100673070D01*
X187032720Y-100457000D01*
X185547000Y-100457000D01*
X185293000Y-100457000D01*
X183807280Y-100457000D01*
X183684780Y-100673070D01*
X172233532Y-100673070D01*
X171952823Y-100252962D01*
X171334797Y-99840009D01*
X170605785Y-99695000D01*
X169754215Y-99695000D01*
X169025203Y-99840009D01*
X168407177Y-100252962D01*
X167994224Y-100870988D01*
X167849215Y-101600000D01*
X166497000Y-101600000D01*
X166497000Y-97790000D01*
X183089215Y-97790000D01*
X183234224Y-98519012D01*
X183647177Y-99137038D01*
X184018943Y-99385445D01*
X183961370Y-99431974D01*
X183699740Y-99912723D01*
X183684780Y-99986930D01*
X183807280Y-100203000D01*
X185293000Y-100203000D01*
X185293000Y-100183000D01*
X185547000Y-100183000D01*
X185547000Y-100203000D01*
X187032720Y-100203000D01*
X187155220Y-99986930D01*
X187140260Y-99912723D01*
X186878630Y-99431974D01*
X186821057Y-99385445D01*
X187192823Y-99137038D01*
X187605776Y-98519012D01*
X187750785Y-97790000D01*
X187605776Y-97060988D01*
X187192823Y-96442962D01*
X186821057Y-96194555D01*
X186878630Y-96148026D01*
X187140260Y-95667277D01*
X187155220Y-95593070D01*
X187032720Y-95377000D01*
X185547000Y-95377000D01*
X185547000Y-95397000D01*
X185293000Y-95397000D01*
X185293000Y-95377000D01*
X183807280Y-95377000D01*
X183684780Y-95593070D01*
X183699740Y-95667277D01*
X183961370Y-96148026D01*
X184018943Y-96194555D01*
X183647177Y-96442962D01*
X183234224Y-97060988D01*
X183089215Y-97790000D01*
X166497000Y-97790000D01*
X166497000Y-96520000D01*
X166390660Y-95985391D01*
X166087828Y-95532172D01*
X164862619Y-94306963D01*
X165988714Y-94306963D01*
X166239534Y-94913995D01*
X166703563Y-95378834D01*
X167310155Y-95630713D01*
X167966963Y-95631286D01*
X168573995Y-95380466D01*
X169038834Y-94916437D01*
X169290713Y-94309845D01*
X169290717Y-94304939D01*
X169488656Y-94107000D01*
X175260000Y-94107000D01*
X175794609Y-94000660D01*
X176247828Y-93697828D01*
X177997656Y-91948000D01*
X183111608Y-91948000D01*
X183111608Y-93472000D01*
X183191308Y-93895570D01*
X183441638Y-94284594D01*
X183823597Y-94545576D01*
X183852792Y-94551488D01*
X183699740Y-94832723D01*
X183684780Y-94906930D01*
X183807280Y-95123000D01*
X185293000Y-95123000D01*
X185293000Y-95103000D01*
X185547000Y-95103000D01*
X185547000Y-95123000D01*
X187032720Y-95123000D01*
X187155220Y-94906930D01*
X187140260Y-94832723D01*
X186989543Y-94555779D01*
X187375594Y-94307362D01*
X187636576Y-93925403D01*
X187728392Y-93472000D01*
X187728392Y-91948000D01*
X187648692Y-91524430D01*
X187398362Y-91135406D01*
X187016403Y-90874424D01*
X186563000Y-90782608D01*
X184277000Y-90782608D01*
X183853430Y-90862308D01*
X183464406Y-91112638D01*
X183203424Y-91494597D01*
X183111608Y-91948000D01*
X177997656Y-91948000D01*
X180272714Y-89672942D01*
X180744595Y-89673354D01*
X181495755Y-89362981D01*
X182070961Y-88788778D01*
X182382645Y-88038161D01*
X182383354Y-87225405D01*
X182072981Y-86474245D01*
X181498778Y-85899039D01*
X180748161Y-85587355D01*
X179935405Y-85586646D01*
X179184245Y-85897019D01*
X179090340Y-85990761D01*
X178998778Y-85899039D01*
X178248161Y-85587355D01*
X177435405Y-85586646D01*
X176684245Y-85897019D01*
X176187636Y-86392762D01*
X176154148Y-86293357D01*
X175580664Y-86083542D01*
X174970540Y-86109161D01*
X174525852Y-86293357D01*
X174439446Y-86549841D01*
X175340000Y-87450395D01*
X175354143Y-87436253D01*
X175533748Y-87615858D01*
X175519605Y-87630000D01*
X175533748Y-87644143D01*
X175354143Y-87823748D01*
X175340000Y-87809605D01*
X174439446Y-88710159D01*
X174525852Y-88966643D01*
X175099336Y-89176458D01*
X175709460Y-89150839D01*
X176154148Y-88966643D01*
X176187819Y-88866696D01*
X176657323Y-89337021D01*
X174681344Y-91313000D01*
X168910000Y-91313000D01*
X168375391Y-91419340D01*
X167922172Y-91722172D01*
X167315628Y-92328716D01*
X167313037Y-92328714D01*
X166706005Y-92579534D01*
X166241166Y-93043563D01*
X165989287Y-93650155D01*
X165988714Y-94306963D01*
X164862619Y-94306963D01*
X164211284Y-93655628D01*
X164211286Y-93653037D01*
X163960466Y-93046005D01*
X163496437Y-92581166D01*
X162889845Y-92329287D01*
X162233037Y-92328714D01*
X161626005Y-92579534D01*
X161417000Y-92788175D01*
X161417000Y-90748656D01*
X164776320Y-87389336D01*
X173793542Y-87389336D01*
X173819161Y-87999460D01*
X174003357Y-88444148D01*
X174259841Y-88530554D01*
X175160395Y-87630000D01*
X174259841Y-86729446D01*
X174003357Y-86815852D01*
X173793542Y-87389336D01*
X164776320Y-87389336D01*
X167357828Y-84807828D01*
X167660660Y-84354609D01*
X167767000Y-83820000D01*
X167767000Y-81252439D01*
X170296456Y-81252439D01*
X170773941Y-82408041D01*
X171657309Y-83292952D01*
X172812076Y-83772453D01*
X174062439Y-83773544D01*
X175218041Y-83296059D01*
X176102952Y-82412691D01*
X176582453Y-81257924D01*
X176582457Y-81252439D01*
X179096456Y-81252439D01*
X179573941Y-82408041D01*
X180457309Y-83292952D01*
X181612076Y-83772453D01*
X182862439Y-83773544D01*
X184018041Y-83296059D01*
X184902952Y-82412691D01*
X185382453Y-81257924D01*
X185383544Y-80007561D01*
X185269107Y-79730600D01*
X190219400Y-79730600D01*
X190219400Y-80048100D01*
X190379175Y-80597342D01*
X190736973Y-81043632D01*
X191238323Y-81319027D01*
X191326856Y-81338288D01*
X191552900Y-81216640D01*
X191552900Y-79730600D01*
X191806900Y-79730600D01*
X191806900Y-81216640D01*
X192032944Y-81338288D01*
X192121477Y-81319027D01*
X192622827Y-81043632D01*
X192836055Y-80777668D01*
X192919573Y-80979299D01*
X193098202Y-81157927D01*
X193331591Y-81254600D01*
X193934150Y-81254600D01*
X194092900Y-81095850D01*
X194092900Y-79730600D01*
X194346900Y-79730600D01*
X194346900Y-81095850D01*
X194505650Y-81254600D01*
X195108209Y-81254600D01*
X195341598Y-81157927D01*
X195520227Y-80979299D01*
X195616900Y-80745910D01*
X195616900Y-79889350D01*
X195458150Y-79730600D01*
X194346900Y-79730600D01*
X194092900Y-79730600D01*
X191806900Y-79730600D01*
X191552900Y-79730600D01*
X190219400Y-79730600D01*
X185269107Y-79730600D01*
X185032968Y-79159100D01*
X190219400Y-79159100D01*
X190219400Y-79476600D01*
X191552900Y-79476600D01*
X191552900Y-77990560D01*
X191806900Y-77990560D01*
X191806900Y-79476600D01*
X194092900Y-79476600D01*
X194092900Y-78111350D01*
X194346900Y-78111350D01*
X194346900Y-79476600D01*
X195458150Y-79476600D01*
X195616900Y-79317850D01*
X195616900Y-78461290D01*
X195520227Y-78227901D01*
X195341598Y-78049273D01*
X195108209Y-77952600D01*
X194505650Y-77952600D01*
X194346900Y-78111350D01*
X194092900Y-78111350D01*
X193934150Y-77952600D01*
X193331591Y-77952600D01*
X193098202Y-78049273D01*
X192919573Y-78227901D01*
X192836055Y-78429532D01*
X192622827Y-78163568D01*
X192121477Y-77888173D01*
X192032944Y-77868912D01*
X191806900Y-77990560D01*
X191552900Y-77990560D01*
X191326856Y-77868912D01*
X191238323Y-77888173D01*
X190736973Y-78163568D01*
X190379175Y-78609858D01*
X190219400Y-79159100D01*
X185032968Y-79159100D01*
X184906059Y-78851959D01*
X184022691Y-77967048D01*
X182867924Y-77487547D01*
X181617561Y-77486456D01*
X180461959Y-77963941D01*
X179577048Y-78847309D01*
X179097547Y-80002076D01*
X179096456Y-81252439D01*
X176582457Y-81252439D01*
X176583544Y-80007561D01*
X176106059Y-78851959D01*
X175222691Y-77967048D01*
X174067924Y-77487547D01*
X172817561Y-77486456D01*
X171661959Y-77963941D01*
X170777048Y-78847309D01*
X170297547Y-80002076D01*
X170296456Y-81252439D01*
X167767000Y-81252439D01*
X167767000Y-77470000D01*
X167660660Y-76935391D01*
X167357828Y-76482172D01*
X164817828Y-73942172D01*
X164364609Y-73639340D01*
X163830000Y-73533000D01*
X145554700Y-73533000D01*
X145020091Y-73639340D01*
X144838557Y-73760637D01*
X144566872Y-73942171D01*
X141389168Y-77119876D01*
X140881100Y-77018815D01*
X140127788Y-77168658D01*
X139611100Y-77513897D01*
X139094412Y-77168658D01*
X138341100Y-77018815D01*
X137587788Y-77168658D01*
X136949160Y-77595375D01*
X136740513Y-77907638D01*
X136242677Y-77634173D01*
X136154144Y-77614912D01*
X135928100Y-77736560D01*
X135928100Y-79222600D01*
X135948100Y-79222600D01*
X135948100Y-79476600D01*
X135928100Y-79476600D01*
X135928100Y-79496600D01*
X135674100Y-79496600D01*
X135674100Y-79476600D01*
X135654100Y-79476600D01*
X135654100Y-79222600D01*
X135674100Y-79222600D01*
X135674100Y-77736560D01*
X135448056Y-77614912D01*
X135359523Y-77634173D01*
X134861687Y-77907638D01*
X134653040Y-77595375D01*
X134014412Y-77168658D01*
X133261100Y-77018815D01*
X132507788Y-77168658D01*
X131991100Y-77513897D01*
X131474412Y-77168658D01*
X130721100Y-77018815D01*
X129967788Y-77168658D01*
X129451100Y-77513897D01*
X128934412Y-77168658D01*
X128181100Y-77018815D01*
X127427788Y-77168658D01*
X126911100Y-77513897D01*
X126394412Y-77168658D01*
X125641100Y-77018815D01*
X125133032Y-77119876D01*
X124495328Y-76482172D01*
X124042109Y-76179340D01*
X123507500Y-76073000D01*
X100330000Y-76073000D01*
X99795391Y-76179340D01*
X99342172Y-76482172D01*
X88848000Y-86976344D01*
X88848000Y-68528000D01*
X93070177Y-68528000D01*
X92428245Y-68793241D01*
G36*
X164622944Y-77698600D02*
X164026850Y-77698600D01*
X163868100Y-77857350D01*
X163868100Y-79222600D01*
X163888100Y-79222600D01*
X163888100Y-79476600D01*
X163868100Y-79476600D01*
X163868100Y-82270600D01*
X163888100Y-82270600D01*
X163888100Y-82524600D01*
X163868100Y-82524600D01*
X163868100Y-84010640D01*
X164086285Y-84128059D01*
X159514551Y-88699793D01*
X159079845Y-88519287D01*
X158423037Y-88518714D01*
X157816005Y-88769534D01*
X157351166Y-89233563D01*
X157099287Y-89840155D01*
X157099283Y-89845061D01*
X156492172Y-90452172D01*
X156189340Y-90905391D01*
X156083000Y-91440000D01*
X156083000Y-98604398D01*
X155345963Y-98298354D01*
X154537584Y-98297648D01*
X153790468Y-98606350D01*
X153670291Y-98726318D01*
X153552538Y-98608359D01*
X152805963Y-98298354D01*
X151997584Y-98297648D01*
X151250468Y-98606350D01*
X150678359Y-99177462D01*
X150368354Y-99924037D01*
X150367648Y-100732416D01*
X150676350Y-101479532D01*
X151247462Y-102051641D01*
X151994037Y-102361646D01*
X152802416Y-102362352D01*
X153549532Y-102053650D01*
X153669709Y-101933682D01*
X153787462Y-102051641D01*
X154534037Y-102361646D01*
X155342416Y-102362352D01*
X156083000Y-102056349D01*
X156083000Y-102291344D01*
X155885628Y-102488716D01*
X155883037Y-102488714D01*
X155276005Y-102739534D01*
X154811166Y-103203563D01*
X154559287Y-103810155D01*
X154558714Y-104466963D01*
X154809534Y-105073995D01*
X155273563Y-105538834D01*
X155880155Y-105790713D01*
X156536963Y-105791286D01*
X157143995Y-105540466D01*
X157608834Y-105076437D01*
X157860713Y-104469845D01*
X157860717Y-104464939D01*
X158467828Y-103857828D01*
X158623000Y-103625597D01*
X158623000Y-114700995D01*
X158552196Y-114677409D01*
X157659605Y-115570000D01*
X158552196Y-116462591D01*
X158623000Y-116439005D01*
X158623000Y-116840000D01*
X158729340Y-117374609D01*
X159032172Y-117827828D01*
X169525800Y-128321456D01*
X169282725Y-128422141D01*
X169153517Y-128714911D01*
X170307000Y-129868395D01*
X170321142Y-129854252D01*
X170500748Y-130033858D01*
X170486605Y-130048000D01*
X170500748Y-130062142D01*
X170321142Y-130241748D01*
X170307000Y-130227605D01*
X169153517Y-131381089D01*
X169282725Y-131673859D01*
X169982883Y-131942071D01*
X170732384Y-131921928D01*
X171323000Y-131677287D01*
X171323000Y-132771344D01*
X169601344Y-134493000D01*
X164799981Y-134493000D01*
X165041825Y-134191342D01*
X165201600Y-133642100D01*
X165201600Y-133324600D01*
X163868100Y-133324600D01*
X163868100Y-133344600D01*
X163614100Y-133344600D01*
X163614100Y-133324600D01*
X163594100Y-133324600D01*
X163594100Y-133070600D01*
X163614100Y-133070600D01*
X163614100Y-130276600D01*
X163868100Y-130276600D01*
X163868100Y-133070600D01*
X165201600Y-133070600D01*
X165201600Y-132753100D01*
X165041825Y-132203858D01*
X164684027Y-131757568D01*
X164531165Y-131673600D01*
X164684027Y-131589632D01*
X165041825Y-131143342D01*
X165201600Y-130594100D01*
X165201600Y-130276600D01*
X163868100Y-130276600D01*
X163614100Y-130276600D01*
X163594100Y-130276600D01*
X163594100Y-130022600D01*
X163614100Y-130022600D01*
X163614100Y-128536560D01*
X163868100Y-128536560D01*
X163868100Y-130022600D01*
X165201600Y-130022600D01*
X165201600Y-129723883D01*
X168412929Y-129723883D01*
X168433072Y-130473384D01*
X168681141Y-131072275D01*
X168973911Y-131201483D01*
X170127395Y-130048000D01*
X168973911Y-128894517D01*
X168681141Y-129023725D01*
X168412929Y-129723883D01*
X165201600Y-129723883D01*
X165201600Y-129705100D01*
X165041825Y-129155858D01*
X164684027Y-128709568D01*
X164182677Y-128434173D01*
X164094144Y-128414912D01*
X163868100Y-128536560D01*
X163614100Y-128536560D01*
X163388056Y-128414912D01*
X163299523Y-128434173D01*
X162801687Y-128707638D01*
X162593040Y-128395375D01*
X161954412Y-127968658D01*
X161201100Y-127818815D01*
X160447788Y-127968658D01*
X159931100Y-128313897D01*
X159414412Y-127968658D01*
X158661100Y-127818815D01*
X157907788Y-127968658D01*
X157391100Y-128313897D01*
X156874412Y-127968658D01*
X156121100Y-127818815D01*
X155367788Y-127968658D01*
X154851100Y-128313897D01*
X154334412Y-127968658D01*
X153581100Y-127818815D01*
X152827788Y-127968658D01*
X152311100Y-128313897D01*
X151794412Y-127968658D01*
X151041100Y-127818815D01*
X150287788Y-127968658D01*
X149771100Y-128313897D01*
X149254412Y-127968658D01*
X148501100Y-127818815D01*
X147747788Y-127968658D01*
X147231100Y-128313897D01*
X146714412Y-127968658D01*
X145961100Y-127818815D01*
X145207788Y-127968658D01*
X144691100Y-128313897D01*
X144174412Y-127968658D01*
X143421100Y-127818815D01*
X142667788Y-127968658D01*
X142151100Y-128313897D01*
X141634412Y-127968658D01*
X140881100Y-127818815D01*
X140127788Y-127968658D01*
X139611100Y-128313897D01*
X139094412Y-127968658D01*
X138341100Y-127818815D01*
X137587788Y-127968658D01*
X137071100Y-128313897D01*
X136554412Y-127968658D01*
X135801100Y-127818815D01*
X135047788Y-127968658D01*
X134531100Y-128313897D01*
X134014412Y-127968658D01*
X133261100Y-127818815D01*
X132507788Y-127968658D01*
X131991100Y-128313897D01*
X131474412Y-127968658D01*
X130721100Y-127818815D01*
X129967788Y-127968658D01*
X129451100Y-128313897D01*
X128934412Y-127968658D01*
X128181100Y-127818815D01*
X127427788Y-127968658D01*
X126911100Y-128313897D01*
X126394412Y-127968658D01*
X125641100Y-127818815D01*
X124887788Y-127968658D01*
X124371100Y-128313897D01*
X123854412Y-127968658D01*
X123101100Y-127818815D01*
X122347788Y-127968658D01*
X121831100Y-128313897D01*
X121314412Y-127968658D01*
X120561100Y-127818815D01*
X119807788Y-127968658D01*
X119291100Y-128313897D01*
X118774412Y-127968658D01*
X118021100Y-127818815D01*
X117990817Y-127824839D01*
X118323950Y-127491706D01*
X118974037Y-127761646D01*
X119782416Y-127762352D01*
X120529532Y-127453650D01*
X121101641Y-126882538D01*
X121411646Y-126135963D01*
X121412352Y-125327584D01*
X121103650Y-124580468D01*
X120532538Y-124008359D01*
X119785963Y-123698354D01*
X118977584Y-123697648D01*
X118230468Y-124006350D01*
X117851799Y-124384359D01*
X117575391Y-124439340D01*
X117122172Y-124742172D01*
X116261344Y-125603000D01*
X102362111Y-125603000D01*
X102362352Y-125327584D01*
X102092109Y-124673547D01*
X109560966Y-117204690D01*
X120078181Y-117204690D01*
X120357942Y-117881763D01*
X120585725Y-118109944D01*
X120359763Y-118335512D01*
X120078820Y-119012096D01*
X120078181Y-119744690D01*
X120357942Y-120421763D01*
X120875512Y-120940237D01*
X121552096Y-121221180D01*
X121785728Y-121221384D01*
X125238294Y-124673950D01*
X124968354Y-125324037D01*
X124967648Y-126132416D01*
X125276350Y-126879532D01*
X125847462Y-127451641D01*
X126594037Y-127761646D01*
X127402416Y-127762352D01*
X128149532Y-127453650D01*
X128721641Y-126882538D01*
X128905068Y-126440796D01*
X129086350Y-126879532D01*
X129657462Y-127451641D01*
X130404037Y-127761646D01*
X131212416Y-127762352D01*
X131959532Y-127453650D01*
X132531641Y-126882538D01*
X132841646Y-126135963D01*
X132842352Y-125327584D01*
X132533650Y-124580468D01*
X131962538Y-124008359D01*
X131215963Y-123698354D01*
X130407584Y-123697648D01*
X129660468Y-124006350D01*
X129088359Y-124577462D01*
X128904932Y-125019204D01*
X128723650Y-124580468D01*
X128345641Y-124201799D01*
X128290660Y-123925391D01*
X127987828Y-123472172D01*
X125229156Y-120713500D01*
X125284810Y-120713500D01*
X125518199Y-120616827D01*
X125696827Y-120438198D01*
X125793500Y-120204809D01*
X125793500Y-119665750D01*
X125634750Y-119507000D01*
X124587000Y-119507000D01*
X124587000Y-119527000D01*
X124333000Y-119527000D01*
X124333000Y-119507000D01*
X124313000Y-119507000D01*
X124313000Y-119253000D01*
X124333000Y-119253000D01*
X124333000Y-118205250D01*
X124587000Y-118205250D01*
X124587000Y-119253000D01*
X125634750Y-119253000D01*
X125793500Y-119094250D01*
X125793500Y-118555191D01*
X125775782Y-118512416D01*
X128777648Y-118512416D01*
X129086350Y-119259532D01*
X129657462Y-119831641D01*
X130404037Y-120141646D01*
X131212416Y-120142352D01*
X131959532Y-119833650D01*
X132531641Y-119262538D01*
X132841646Y-118515963D01*
X132842352Y-117707584D01*
X132533650Y-116960468D01*
X131962538Y-116388359D01*
X131215963Y-116078354D01*
X130407584Y-116077648D01*
X129660468Y-116386350D01*
X129088359Y-116957462D01*
X128778354Y-117704037D01*
X128777648Y-118512416D01*
X125775782Y-118512416D01*
X125696827Y-118321802D01*
X125518199Y-118143173D01*
X125284810Y-118046500D01*
X124745750Y-118046500D01*
X124587000Y-118205250D01*
X124333000Y-118205250D01*
X124174250Y-118046500D01*
X123635190Y-118046500D01*
X123401801Y-118143173D01*
X123344518Y-118200457D01*
X123254275Y-118110056D01*
X123480237Y-117884488D01*
X123761180Y-117207904D01*
X123761819Y-116475310D01*
X123554028Y-115972416D01*
X152907648Y-115972416D01*
X153216350Y-116719532D01*
X153787462Y-117291641D01*
X154534037Y-117601646D01*
X155342416Y-117602352D01*
X156089532Y-117293650D01*
X156626018Y-116758099D01*
X156672467Y-116897539D01*
X157241965Y-117105516D01*
X157847700Y-117079723D01*
X158287533Y-116897539D01*
X158372591Y-116642196D01*
X157480000Y-115749605D01*
X157465858Y-115763748D01*
X157286253Y-115584143D01*
X157300395Y-115570000D01*
X157286253Y-115555858D01*
X157465858Y-115376253D01*
X157480000Y-115390395D01*
X158372591Y-114497804D01*
X158287533Y-114242461D01*
X157718035Y-114034484D01*
X157112300Y-114060277D01*
X156672467Y-114242461D01*
X156625801Y-114382553D01*
X156092538Y-113848359D01*
X155345963Y-113538354D01*
X154537584Y-113537648D01*
X153790468Y-113846350D01*
X153218359Y-114417462D01*
X152908354Y-115164037D01*
X152907648Y-115972416D01*
X123554028Y-115972416D01*
X123482058Y-115798237D01*
X122964488Y-115279763D01*
X122287904Y-114998820D01*
X121555310Y-114998181D01*
X120878237Y-115277942D01*
X120359763Y-115795512D01*
X120078820Y-116472096D01*
X120078181Y-117204690D01*
X109560966Y-117204690D01*
X113806331Y-112959325D01*
X113876515Y-113029631D01*
X113794558Y-113111445D01*
X113474865Y-113881351D01*
X113474137Y-114714992D01*
X113792486Y-115485455D01*
X114381445Y-116075442D01*
X115151351Y-116395135D01*
X115984992Y-116395863D01*
X116755455Y-116077514D01*
X117345442Y-115488555D01*
X117665135Y-114718649D01*
X117665863Y-113885008D01*
X117347514Y-113114545D01*
X117263485Y-113030369D01*
X117345442Y-112948555D01*
X117665135Y-112178649D01*
X117665182Y-112124690D01*
X121348181Y-112124690D01*
X121627942Y-112801763D01*
X122145512Y-113320237D01*
X122822096Y-113601180D01*
X123554690Y-113601819D01*
X124231763Y-113322058D01*
X124459944Y-113094275D01*
X124685512Y-113320237D01*
X125362096Y-113601180D01*
X126094690Y-113601819D01*
X126771763Y-113322058D01*
X127290237Y-112804488D01*
X127571180Y-112127904D01*
X127571819Y-111395310D01*
X127292058Y-110718237D01*
X126909757Y-110335268D01*
X126966827Y-110278199D01*
X127063500Y-110044810D01*
X127063500Y-109505750D01*
X126904750Y-109347000D01*
X125857000Y-109347000D01*
X125857000Y-109367000D01*
X125603000Y-109367000D01*
X125603000Y-109347000D01*
X124555250Y-109347000D01*
X124396500Y-109505750D01*
X124396500Y-110044810D01*
X124493173Y-110278199D01*
X124550457Y-110335482D01*
X124460056Y-110425725D01*
X124234488Y-110199763D01*
X123557904Y-109918820D01*
X122825310Y-109918181D01*
X122148237Y-110197942D01*
X121629763Y-110715512D01*
X121348820Y-111392096D01*
X121348181Y-112124690D01*
X117665182Y-112124690D01*
X117665863Y-111345008D01*
X117347514Y-110574545D01*
X117263485Y-110490369D01*
X117345442Y-110408555D01*
X117665135Y-109638649D01*
X117665863Y-108805008D01*
X117496530Y-108395190D01*
X124396500Y-108395190D01*
X124396500Y-108934250D01*
X124555250Y-109093000D01*
X125603000Y-109093000D01*
X125603000Y-108045250D01*
X125857000Y-108045250D01*
X125857000Y-109093000D01*
X126904750Y-109093000D01*
X127063500Y-108934250D01*
X127063500Y-108395190D01*
X126966827Y-108161801D01*
X126788198Y-107983173D01*
X126554809Y-107886500D01*
X126015750Y-107886500D01*
X125857000Y-108045250D01*
X125603000Y-108045250D01*
X125444250Y-107886500D01*
X124905191Y-107886500D01*
X124671802Y-107983173D01*
X124493173Y-108161801D01*
X124396500Y-108395190D01*
X117496530Y-108395190D01*
X117347514Y-108034545D01*
X117263485Y-107950369D01*
X117345442Y-107868555D01*
X117665135Y-107098649D01*
X117665863Y-106265008D01*
X117347514Y-105494545D01*
X117263485Y-105410369D01*
X117345442Y-105328555D01*
X117665135Y-104558649D01*
X117665863Y-103725008D01*
X117347514Y-102954545D01*
X117263485Y-102870369D01*
X117345442Y-102788555D01*
X117665135Y-102018649D01*
X117665182Y-101964690D01*
X121348181Y-101964690D01*
X121627942Y-102641763D01*
X122145512Y-103160237D01*
X122822096Y-103441180D01*
X123554690Y-103441819D01*
X124231763Y-103162058D01*
X124459944Y-102934275D01*
X124685512Y-103160237D01*
X125362096Y-103441180D01*
X126094690Y-103441819D01*
X126401155Y-103315190D01*
X132016500Y-103315190D01*
X132016500Y-103854250D01*
X132175250Y-104013000D01*
X133223000Y-104013000D01*
X133223000Y-102965250D01*
X133477000Y-102965250D01*
X133477000Y-104013000D01*
X134524750Y-104013000D01*
X134683500Y-103854250D01*
X134683500Y-103315190D01*
X134586827Y-103081801D01*
X134408198Y-102903173D01*
X134174809Y-102806500D01*
X133635750Y-102806500D01*
X133477000Y-102965250D01*
X133223000Y-102965250D01*
X133064250Y-102806500D01*
X132525191Y-102806500D01*
X132291802Y-102903173D01*
X132113173Y-103081801D01*
X132016500Y-103315190D01*
X126401155Y-103315190D01*
X126771763Y-103162058D01*
X127290237Y-102644488D01*
X127571180Y-101967904D01*
X127571819Y-101235310D01*
X127364028Y-100732416D01*
X137667648Y-100732416D01*
X137976350Y-101479532D01*
X138547462Y-102051641D01*
X139294037Y-102361646D01*
X140102416Y-102362352D01*
X140849532Y-102053650D01*
X141421641Y-101482538D01*
X141731646Y-100735963D01*
X141732352Y-99927584D01*
X141423650Y-99180468D01*
X140852538Y-98608359D01*
X140105963Y-98298354D01*
X139297584Y-98297648D01*
X138550468Y-98606350D01*
X137978359Y-99177462D01*
X137668354Y-99924037D01*
X137667648Y-100732416D01*
X127364028Y-100732416D01*
X127292058Y-100558237D01*
X126909757Y-100175268D01*
X126966827Y-100118199D01*
X127063500Y-99884810D01*
X127063500Y-99345750D01*
X126904750Y-99187000D01*
X125857000Y-99187000D01*
X125857000Y-99207000D01*
X125603000Y-99207000D01*
X125603000Y-99187000D01*
X124555250Y-99187000D01*
X124396500Y-99345750D01*
X124396500Y-99884810D01*
X124493173Y-100118199D01*
X124550457Y-100175482D01*
X124460056Y-100265725D01*
X124234488Y-100039763D01*
X123557904Y-99758820D01*
X122825310Y-99758181D01*
X122148237Y-100037942D01*
X121629763Y-100555512D01*
X121348820Y-101232096D01*
X121348181Y-101964690D01*
X117665182Y-101964690D01*
X117665863Y-101185008D01*
X117347514Y-100414545D01*
X117263485Y-100330369D01*
X117345442Y-100248555D01*
X117665135Y-99478649D01*
X117665863Y-98645008D01*
X117496530Y-98235190D01*
X124396500Y-98235190D01*
X124396500Y-98774250D01*
X124555250Y-98933000D01*
X125603000Y-98933000D01*
X125603000Y-97885250D01*
X125857000Y-97885250D01*
X125857000Y-98933000D01*
X126904750Y-98933000D01*
X127063500Y-98774250D01*
X127063500Y-98235190D01*
X126966827Y-98001801D01*
X126788198Y-97823173D01*
X126554809Y-97726500D01*
X126015750Y-97726500D01*
X125857000Y-97885250D01*
X125603000Y-97885250D01*
X125444250Y-97726500D01*
X124905191Y-97726500D01*
X124671802Y-97823173D01*
X124493173Y-98001801D01*
X124396500Y-98235190D01*
X117496530Y-98235190D01*
X117347514Y-97874545D01*
X117263485Y-97790369D01*
X117345442Y-97708555D01*
X117665135Y-96938649D01*
X117665467Y-96558577D01*
X118110000Y-96647000D01*
X127000000Y-96647000D01*
X127534609Y-96540660D01*
X127987828Y-96237828D01*
X129959906Y-94265750D01*
X130746500Y-94265750D01*
X130746500Y-94804809D01*
X130843173Y-95038198D01*
X131021801Y-95216827D01*
X131255190Y-95313500D01*
X131794250Y-95313500D01*
X131953000Y-95154750D01*
X131953000Y-94107000D01*
X130905250Y-94107000D01*
X130746500Y-94265750D01*
X129959906Y-94265750D01*
X130746500Y-93479156D01*
X130746500Y-93694250D01*
X130905250Y-93853000D01*
X131953000Y-93853000D01*
X131953000Y-92805250D01*
X132207000Y-92805250D01*
X132207000Y-93853000D01*
X132227000Y-93853000D01*
X132227000Y-94107000D01*
X132207000Y-94107000D01*
X132207000Y-95154750D01*
X132365750Y-95313500D01*
X132904810Y-95313500D01*
X133138199Y-95216827D01*
X133195482Y-95159543D01*
X133285725Y-95249944D01*
X133059763Y-95475512D01*
X132778820Y-96152096D01*
X132778181Y-96884690D01*
X133057942Y-97561763D01*
X133575512Y-98080237D01*
X134252096Y-98361180D01*
X134984690Y-98361819D01*
X135661763Y-98082058D01*
X136180237Y-97564488D01*
X136461180Y-96887904D01*
X136461819Y-96155310D01*
X136182058Y-95478237D01*
X135954275Y-95250056D01*
X136180237Y-95024488D01*
X136461180Y-94347904D01*
X136461819Y-93615310D01*
X136254028Y-93112416D01*
X137667648Y-93112416D01*
X137976350Y-93859532D01*
X138547462Y-94431641D01*
X139294037Y-94741646D01*
X140102416Y-94742352D01*
X140849532Y-94433650D01*
X141421641Y-93862538D01*
X141731646Y-93115963D01*
X141732352Y-92307584D01*
X141423650Y-91560468D01*
X140852538Y-90988359D01*
X140105963Y-90678354D01*
X139297584Y-90677648D01*
X138550468Y-90986350D01*
X137978359Y-91557462D01*
X137668354Y-92304037D01*
X137667648Y-93112416D01*
X136254028Y-93112416D01*
X136182058Y-92938237D01*
X135664488Y-92419763D01*
X134987904Y-92138820D01*
X134255310Y-92138181D01*
X133578237Y-92417942D01*
X133195268Y-92800243D01*
X133138199Y-92743173D01*
X132904810Y-92646500D01*
X132365750Y-92646500D01*
X132207000Y-92805250D01*
X131953000Y-92805250D01*
X131794250Y-92646500D01*
X131579156Y-92646500D01*
X135833705Y-88391951D01*
X136292416Y-88392352D01*
X137039532Y-88083650D01*
X137611641Y-87512538D01*
X137921646Y-86765963D01*
X137922352Y-85957584D01*
X137613650Y-85210468D01*
X137042538Y-84638359D01*
X136686283Y-84490429D01*
X137071100Y-84233303D01*
X137587788Y-84578542D01*
X138341100Y-84728385D01*
X139094412Y-84578542D01*
X139611100Y-84233303D01*
X140127788Y-84578542D01*
X140881100Y-84728385D01*
X141634412Y-84578542D01*
X142151100Y-84233303D01*
X142603819Y-84535799D01*
X142360468Y-84636350D01*
X141788359Y-85207462D01*
X141478354Y-85954037D01*
X141477648Y-86762416D01*
X141786350Y-87509532D01*
X142113000Y-87836752D01*
X142113000Y-101021344D01*
X137851344Y-105283000D01*
X134557440Y-105283000D01*
X134529757Y-105255268D01*
X134586827Y-105198199D01*
X134683500Y-104964810D01*
X134683500Y-104425750D01*
X134524750Y-104267000D01*
X133477000Y-104267000D01*
X133477000Y-104287000D01*
X133223000Y-104287000D01*
X133223000Y-104267000D01*
X132175250Y-104267000D01*
X132016500Y-104425750D01*
X132016500Y-104964810D01*
X132113173Y-105198199D01*
X132170457Y-105255482D01*
X132080056Y-105345725D01*
X131854488Y-105119763D01*
X131177904Y-104838820D01*
X130445310Y-104838181D01*
X129768237Y-105117942D01*
X129249763Y-105635512D01*
X128968820Y-106312096D01*
X128968181Y-107044690D01*
X129247942Y-107721763D01*
X129765512Y-108240237D01*
X130442096Y-108521180D01*
X131174690Y-108521819D01*
X131851763Y-108242058D01*
X132079944Y-108014275D01*
X132305512Y-108240237D01*
X132982096Y-108521180D01*
X133714690Y-108521819D01*
X134391763Y-108242058D01*
X134535655Y-108098416D01*
X141223648Y-108098416D01*
X141532350Y-108845532D01*
X142103462Y-109417641D01*
X142850037Y-109727646D01*
X143658416Y-109728352D01*
X144405532Y-109419650D01*
X144977641Y-108848538D01*
X145287646Y-108101963D01*
X145287649Y-108098416D01*
X148843648Y-108098416D01*
X149152350Y-108845532D01*
X149723462Y-109417641D01*
X150470037Y-109727646D01*
X151278416Y-109728352D01*
X152025532Y-109419650D01*
X152597641Y-108848538D01*
X152907646Y-108101963D01*
X152908352Y-107293584D01*
X152599650Y-106546468D01*
X152028538Y-105974359D01*
X151281963Y-105664354D01*
X150473584Y-105663648D01*
X149726468Y-105972350D01*
X149154359Y-106543462D01*
X148844354Y-107290037D01*
X148843648Y-108098416D01*
X145287649Y-108098416D01*
X145288352Y-107293584D01*
X144979650Y-106546468D01*
X144408538Y-105974359D01*
X143661963Y-105664354D01*
X142853584Y-105663648D01*
X142106468Y-105972350D01*
X141534359Y-106543462D01*
X141224354Y-107290037D01*
X141223648Y-108098416D01*
X134535655Y-108098416D01*
X134557109Y-108077000D01*
X138430000Y-108077000D01*
X138964609Y-107970660D01*
X139417828Y-107667828D01*
X144497828Y-102587828D01*
X144800660Y-102134609D01*
X144907000Y-101600000D01*
X144907000Y-99515602D01*
X145644037Y-99821646D01*
X146452416Y-99822352D01*
X147199532Y-99513650D01*
X147771641Y-98942538D01*
X148081646Y-98195963D01*
X148082352Y-97387584D01*
X147773650Y-96640468D01*
X147202538Y-96068359D01*
X146455963Y-95758354D01*
X145647584Y-95757648D01*
X144907000Y-96063651D01*
X144907000Y-91895602D01*
X145644037Y-92201646D01*
X146452416Y-92202352D01*
X147199532Y-91893650D01*
X147771641Y-91322538D01*
X148081646Y-90575963D01*
X148082352Y-89767584D01*
X147773650Y-89020468D01*
X147202538Y-88448359D01*
X146455963Y-88138354D01*
X145647584Y-88137648D01*
X144907000Y-88443651D01*
X144907000Y-87836613D01*
X145231641Y-87512538D01*
X145541646Y-86765963D01*
X145542352Y-85957584D01*
X145233650Y-85210468D01*
X144662538Y-84638359D01*
X144306283Y-84490429D01*
X144691100Y-84233303D01*
X145207788Y-84578542D01*
X145961100Y-84728385D01*
X146714412Y-84578542D01*
X147231100Y-84233303D01*
X147747788Y-84578542D01*
X148501100Y-84728385D01*
X149254412Y-84578542D01*
X149771100Y-84233303D01*
X150287788Y-84578542D01*
X151041100Y-84728385D01*
X151794412Y-84578542D01*
X152311100Y-84233303D01*
X152827788Y-84578542D01*
X153581100Y-84728385D01*
X154334412Y-84578542D01*
X154851100Y-84233303D01*
X155367788Y-84578542D01*
X156121100Y-84728385D01*
X156874412Y-84578542D01*
X157391100Y-84233303D01*
X157907788Y-84578542D01*
X158661100Y-84728385D01*
X159414412Y-84578542D01*
X159931100Y-84233303D01*
X160447788Y-84578542D01*
X161201100Y-84728385D01*
X161954412Y-84578542D01*
X162593040Y-84151825D01*
X162801687Y-83839562D01*
X163299523Y-84113027D01*
X163388056Y-84132288D01*
X163614100Y-84010640D01*
X163614100Y-82524600D01*
X163594100Y-82524600D01*
X163594100Y-82270600D01*
X163614100Y-82270600D01*
X163614100Y-79476600D01*
X163594100Y-79476600D01*
X163594100Y-79222600D01*
X163614100Y-79222600D01*
X163614100Y-77857350D01*
X163455350Y-77698600D01*
X162852791Y-77698600D01*
X162703368Y-77760493D01*
X162593040Y-77595375D01*
X161954412Y-77168658D01*
X161201100Y-77018815D01*
X160447788Y-77168658D01*
X159809160Y-77595375D01*
X159600513Y-77907638D01*
X159102677Y-77634173D01*
X159014144Y-77614912D01*
X158788100Y-77736560D01*
X158788100Y-79222600D01*
X158808100Y-79222600D01*
X158808100Y-79476600D01*
X158788100Y-79476600D01*
X158788100Y-79496600D01*
X158534100Y-79496600D01*
X158534100Y-79476600D01*
X158514100Y-79476600D01*
X158514100Y-79222600D01*
X158534100Y-79222600D01*
X158534100Y-77736560D01*
X158308056Y-77614912D01*
X158219523Y-77634173D01*
X157721687Y-77907638D01*
X157513040Y-77595375D01*
X156874412Y-77168658D01*
X156121100Y-77018815D01*
X155367788Y-77168658D01*
X154851100Y-77513897D01*
X154334412Y-77168658D01*
X153581100Y-77018815D01*
X152827788Y-77168658D01*
X152311100Y-77513897D01*
X151794412Y-77168658D01*
X151041100Y-77018815D01*
X150287788Y-77168658D01*
X149771100Y-77513897D01*
X149254412Y-77168658D01*
X148501100Y-77018815D01*
X147747788Y-77168658D01*
X147231100Y-77513897D01*
X146714412Y-77168658D01*
X145961100Y-77018815D01*
X145312534Y-77147823D01*
X146133357Y-76327000D01*
X163251344Y-76327000D01*
X164622944Y-77698600D01*
X164622944Y-77698600D01*
G37*
X164622944Y-77698600D02*
X164026850Y-77698600D01*
X163868100Y-77857350D01*
X163868100Y-79222600D01*
X163888100Y-79222600D01*
X163888100Y-79476600D01*
X163868100Y-79476600D01*
X163868100Y-82270600D01*
X163888100Y-82270600D01*
X163888100Y-82524600D01*
X163868100Y-82524600D01*
X163868100Y-84010640D01*
X164086285Y-84128059D01*
X159514551Y-88699793D01*
X159079845Y-88519287D01*
X158423037Y-88518714D01*
X157816005Y-88769534D01*
X157351166Y-89233563D01*
X157099287Y-89840155D01*
X157099283Y-89845061D01*
X156492172Y-90452172D01*
X156189340Y-90905391D01*
X156083000Y-91440000D01*
X156083000Y-98604398D01*
X155345963Y-98298354D01*
X154537584Y-98297648D01*
X153790468Y-98606350D01*
X153670291Y-98726318D01*
X153552538Y-98608359D01*
X152805963Y-98298354D01*
X151997584Y-98297648D01*
X151250468Y-98606350D01*
X150678359Y-99177462D01*
X150368354Y-99924037D01*
X150367648Y-100732416D01*
X150676350Y-101479532D01*
X151247462Y-102051641D01*
X151994037Y-102361646D01*
X152802416Y-102362352D01*
X153549532Y-102053650D01*
X153669709Y-101933682D01*
X153787462Y-102051641D01*
X154534037Y-102361646D01*
X155342416Y-102362352D01*
X156083000Y-102056349D01*
X156083000Y-102291344D01*
X155885628Y-102488716D01*
X155883037Y-102488714D01*
X155276005Y-102739534D01*
X154811166Y-103203563D01*
X154559287Y-103810155D01*
X154558714Y-104466963D01*
X154809534Y-105073995D01*
X155273563Y-105538834D01*
X155880155Y-105790713D01*
X156536963Y-105791286D01*
X157143995Y-105540466D01*
X157608834Y-105076437D01*
X157860713Y-104469845D01*
X157860717Y-104464939D01*
X158467828Y-103857828D01*
X158623000Y-103625597D01*
X158623000Y-114700995D01*
X158552196Y-114677409D01*
X157659605Y-115570000D01*
X158552196Y-116462591D01*
X158623000Y-116439005D01*
X158623000Y-116840000D01*
X158729340Y-117374609D01*
X159032172Y-117827828D01*
X169525800Y-128321456D01*
X169282725Y-128422141D01*
X169153517Y-128714911D01*
X170307000Y-129868395D01*
X170321142Y-129854252D01*
X170500748Y-130033858D01*
X170486605Y-130048000D01*
X170500748Y-130062142D01*
X170321142Y-130241748D01*
X170307000Y-130227605D01*
X169153517Y-131381089D01*
X169282725Y-131673859D01*
X169982883Y-131942071D01*
X170732384Y-131921928D01*
X171323000Y-131677287D01*
X171323000Y-132771344D01*
X169601344Y-134493000D01*
X164799981Y-134493000D01*
X165041825Y-134191342D01*
X165201600Y-133642100D01*
X165201600Y-133324600D01*
X163868100Y-133324600D01*
X163868100Y-133344600D01*
X163614100Y-133344600D01*
X163614100Y-133324600D01*
X163594100Y-133324600D01*
X163594100Y-133070600D01*
X163614100Y-133070600D01*
X163614100Y-130276600D01*
X163868100Y-130276600D01*
X163868100Y-133070600D01*
X165201600Y-133070600D01*
X165201600Y-132753100D01*
X165041825Y-132203858D01*
X164684027Y-131757568D01*
X164531165Y-131673600D01*
X164684027Y-131589632D01*
X165041825Y-131143342D01*
X165201600Y-130594100D01*
X165201600Y-130276600D01*
X163868100Y-130276600D01*
X163614100Y-130276600D01*
X163594100Y-130276600D01*
X163594100Y-130022600D01*
X163614100Y-130022600D01*
X163614100Y-128536560D01*
X163868100Y-128536560D01*
X163868100Y-130022600D01*
X165201600Y-130022600D01*
X165201600Y-129723883D01*
X168412929Y-129723883D01*
X168433072Y-130473384D01*
X168681141Y-131072275D01*
X168973911Y-131201483D01*
X170127395Y-130048000D01*
X168973911Y-128894517D01*
X168681141Y-129023725D01*
X168412929Y-129723883D01*
X165201600Y-129723883D01*
X165201600Y-129705100D01*
X165041825Y-129155858D01*
X164684027Y-128709568D01*
X164182677Y-128434173D01*
X164094144Y-128414912D01*
X163868100Y-128536560D01*
X163614100Y-128536560D01*
X163388056Y-128414912D01*
X163299523Y-128434173D01*
X162801687Y-128707638D01*
X162593040Y-128395375D01*
X161954412Y-127968658D01*
X161201100Y-127818815D01*
X160447788Y-127968658D01*
X159931100Y-128313897D01*
X159414412Y-127968658D01*
X158661100Y-127818815D01*
X157907788Y-127968658D01*
X157391100Y-128313897D01*
X156874412Y-127968658D01*
X156121100Y-127818815D01*
X155367788Y-127968658D01*
X154851100Y-128313897D01*
X154334412Y-127968658D01*
X153581100Y-127818815D01*
X152827788Y-127968658D01*
X152311100Y-128313897D01*
X151794412Y-127968658D01*
X151041100Y-127818815D01*
X150287788Y-127968658D01*
X149771100Y-128313897D01*
X149254412Y-127968658D01*
X148501100Y-127818815D01*
X147747788Y-127968658D01*
X147231100Y-128313897D01*
X146714412Y-127968658D01*
X145961100Y-127818815D01*
X145207788Y-127968658D01*
X144691100Y-128313897D01*
X144174412Y-127968658D01*
X143421100Y-127818815D01*
X142667788Y-127968658D01*
X142151100Y-128313897D01*
X141634412Y-127968658D01*
X140881100Y-127818815D01*
X140127788Y-127968658D01*
X139611100Y-128313897D01*
X139094412Y-127968658D01*
X138341100Y-127818815D01*
X137587788Y-127968658D01*
X137071100Y-128313897D01*
X136554412Y-127968658D01*
X135801100Y-127818815D01*
X135047788Y-127968658D01*
X134531100Y-128313897D01*
X134014412Y-127968658D01*
X133261100Y-127818815D01*
X132507788Y-127968658D01*
X131991100Y-128313897D01*
X131474412Y-127968658D01*
X130721100Y-127818815D01*
X129967788Y-127968658D01*
X129451100Y-128313897D01*
X128934412Y-127968658D01*
X128181100Y-127818815D01*
X127427788Y-127968658D01*
X126911100Y-128313897D01*
X126394412Y-127968658D01*
X125641100Y-127818815D01*
X124887788Y-127968658D01*
X124371100Y-128313897D01*
X123854412Y-127968658D01*
X123101100Y-127818815D01*
X122347788Y-127968658D01*
X121831100Y-128313897D01*
X121314412Y-127968658D01*
X120561100Y-127818815D01*
X119807788Y-127968658D01*
X119291100Y-128313897D01*
X118774412Y-127968658D01*
X118021100Y-127818815D01*
X117990817Y-127824839D01*
X118323950Y-127491706D01*
X118974037Y-127761646D01*
X119782416Y-127762352D01*
X120529532Y-127453650D01*
X121101641Y-126882538D01*
X121411646Y-126135963D01*
X121412352Y-125327584D01*
X121103650Y-124580468D01*
X120532538Y-124008359D01*
X119785963Y-123698354D01*
X118977584Y-123697648D01*
X118230468Y-124006350D01*
X117851799Y-124384359D01*
X117575391Y-124439340D01*
X117122172Y-124742172D01*
X116261344Y-125603000D01*
X102362111Y-125603000D01*
X102362352Y-125327584D01*
X102092109Y-124673547D01*
X109560966Y-117204690D01*
X120078181Y-117204690D01*
X120357942Y-117881763D01*
X120585725Y-118109944D01*
X120359763Y-118335512D01*
X120078820Y-119012096D01*
X120078181Y-119744690D01*
X120357942Y-120421763D01*
X120875512Y-120940237D01*
X121552096Y-121221180D01*
X121785728Y-121221384D01*
X125238294Y-124673950D01*
X124968354Y-125324037D01*
X124967648Y-126132416D01*
X125276350Y-126879532D01*
X125847462Y-127451641D01*
X126594037Y-127761646D01*
X127402416Y-127762352D01*
X128149532Y-127453650D01*
X128721641Y-126882538D01*
X128905068Y-126440796D01*
X129086350Y-126879532D01*
X129657462Y-127451641D01*
X130404037Y-127761646D01*
X131212416Y-127762352D01*
X131959532Y-127453650D01*
X132531641Y-126882538D01*
X132841646Y-126135963D01*
X132842352Y-125327584D01*
X132533650Y-124580468D01*
X131962538Y-124008359D01*
X131215963Y-123698354D01*
X130407584Y-123697648D01*
X129660468Y-124006350D01*
X129088359Y-124577462D01*
X128904932Y-125019204D01*
X128723650Y-124580468D01*
X128345641Y-124201799D01*
X128290660Y-123925391D01*
X127987828Y-123472172D01*
X125229156Y-120713500D01*
X125284810Y-120713500D01*
X125518199Y-120616827D01*
X125696827Y-120438198D01*
X125793500Y-120204809D01*
X125793500Y-119665750D01*
X125634750Y-119507000D01*
X124587000Y-119507000D01*
X124587000Y-119527000D01*
X124333000Y-119527000D01*
X124333000Y-119507000D01*
X124313000Y-119507000D01*
X124313000Y-119253000D01*
X124333000Y-119253000D01*
X124333000Y-118205250D01*
X124587000Y-118205250D01*
X124587000Y-119253000D01*
X125634750Y-119253000D01*
X125793500Y-119094250D01*
X125793500Y-118555191D01*
X125775782Y-118512416D01*
X128777648Y-118512416D01*
X129086350Y-119259532D01*
X129657462Y-119831641D01*
X130404037Y-120141646D01*
X131212416Y-120142352D01*
X131959532Y-119833650D01*
X132531641Y-119262538D01*
X132841646Y-118515963D01*
X132842352Y-117707584D01*
X132533650Y-116960468D01*
X131962538Y-116388359D01*
X131215963Y-116078354D01*
X130407584Y-116077648D01*
X129660468Y-116386350D01*
X129088359Y-116957462D01*
X128778354Y-117704037D01*
X128777648Y-118512416D01*
X125775782Y-118512416D01*
X125696827Y-118321802D01*
X125518199Y-118143173D01*
X125284810Y-118046500D01*
X124745750Y-118046500D01*
X124587000Y-118205250D01*
X124333000Y-118205250D01*
X124174250Y-118046500D01*
X123635190Y-118046500D01*
X123401801Y-118143173D01*
X123344518Y-118200457D01*
X123254275Y-118110056D01*
X123480237Y-117884488D01*
X123761180Y-117207904D01*
X123761819Y-116475310D01*
X123554028Y-115972416D01*
X152907648Y-115972416D01*
X153216350Y-116719532D01*
X153787462Y-117291641D01*
X154534037Y-117601646D01*
X155342416Y-117602352D01*
X156089532Y-117293650D01*
X156626018Y-116758099D01*
X156672467Y-116897539D01*
X157241965Y-117105516D01*
X157847700Y-117079723D01*
X158287533Y-116897539D01*
X158372591Y-116642196D01*
X157480000Y-115749605D01*
X157465858Y-115763748D01*
X157286253Y-115584143D01*
X157300395Y-115570000D01*
X157286253Y-115555858D01*
X157465858Y-115376253D01*
X157480000Y-115390395D01*
X158372591Y-114497804D01*
X158287533Y-114242461D01*
X157718035Y-114034484D01*
X157112300Y-114060277D01*
X156672467Y-114242461D01*
X156625801Y-114382553D01*
X156092538Y-113848359D01*
X155345963Y-113538354D01*
X154537584Y-113537648D01*
X153790468Y-113846350D01*
X153218359Y-114417462D01*
X152908354Y-115164037D01*
X152907648Y-115972416D01*
X123554028Y-115972416D01*
X123482058Y-115798237D01*
X122964488Y-115279763D01*
X122287904Y-114998820D01*
X121555310Y-114998181D01*
X120878237Y-115277942D01*
X120359763Y-115795512D01*
X120078820Y-116472096D01*
X120078181Y-117204690D01*
X109560966Y-117204690D01*
X113806331Y-112959325D01*
X113876515Y-113029631D01*
X113794558Y-113111445D01*
X113474865Y-113881351D01*
X113474137Y-114714992D01*
X113792486Y-115485455D01*
X114381445Y-116075442D01*
X115151351Y-116395135D01*
X115984992Y-116395863D01*
X116755455Y-116077514D01*
X117345442Y-115488555D01*
X117665135Y-114718649D01*
X117665863Y-113885008D01*
X117347514Y-113114545D01*
X117263485Y-113030369D01*
X117345442Y-112948555D01*
X117665135Y-112178649D01*
X117665182Y-112124690D01*
X121348181Y-112124690D01*
X121627942Y-112801763D01*
X122145512Y-113320237D01*
X122822096Y-113601180D01*
X123554690Y-113601819D01*
X124231763Y-113322058D01*
X124459944Y-113094275D01*
X124685512Y-113320237D01*
X125362096Y-113601180D01*
X126094690Y-113601819D01*
X126771763Y-113322058D01*
X127290237Y-112804488D01*
X127571180Y-112127904D01*
X127571819Y-111395310D01*
X127292058Y-110718237D01*
X126909757Y-110335268D01*
X126966827Y-110278199D01*
X127063500Y-110044810D01*
X127063500Y-109505750D01*
X126904750Y-109347000D01*
X125857000Y-109347000D01*
X125857000Y-109367000D01*
X125603000Y-109367000D01*
X125603000Y-109347000D01*
X124555250Y-109347000D01*
X124396500Y-109505750D01*
X124396500Y-110044810D01*
X124493173Y-110278199D01*
X124550457Y-110335482D01*
X124460056Y-110425725D01*
X124234488Y-110199763D01*
X123557904Y-109918820D01*
X122825310Y-109918181D01*
X122148237Y-110197942D01*
X121629763Y-110715512D01*
X121348820Y-111392096D01*
X121348181Y-112124690D01*
X117665182Y-112124690D01*
X117665863Y-111345008D01*
X117347514Y-110574545D01*
X117263485Y-110490369D01*
X117345442Y-110408555D01*
X117665135Y-109638649D01*
X117665863Y-108805008D01*
X117496530Y-108395190D01*
X124396500Y-108395190D01*
X124396500Y-108934250D01*
X124555250Y-109093000D01*
X125603000Y-109093000D01*
X125603000Y-108045250D01*
X125857000Y-108045250D01*
X125857000Y-109093000D01*
X126904750Y-109093000D01*
X127063500Y-108934250D01*
X127063500Y-108395190D01*
X126966827Y-108161801D01*
X126788198Y-107983173D01*
X126554809Y-107886500D01*
X126015750Y-107886500D01*
X125857000Y-108045250D01*
X125603000Y-108045250D01*
X125444250Y-107886500D01*
X124905191Y-107886500D01*
X124671802Y-107983173D01*
X124493173Y-108161801D01*
X124396500Y-108395190D01*
X117496530Y-108395190D01*
X117347514Y-108034545D01*
X117263485Y-107950369D01*
X117345442Y-107868555D01*
X117665135Y-107098649D01*
X117665863Y-106265008D01*
X117347514Y-105494545D01*
X117263485Y-105410369D01*
X117345442Y-105328555D01*
X117665135Y-104558649D01*
X117665863Y-103725008D01*
X117347514Y-102954545D01*
X117263485Y-102870369D01*
X117345442Y-102788555D01*
X117665135Y-102018649D01*
X117665182Y-101964690D01*
X121348181Y-101964690D01*
X121627942Y-102641763D01*
X122145512Y-103160237D01*
X122822096Y-103441180D01*
X123554690Y-103441819D01*
X124231763Y-103162058D01*
X124459944Y-102934275D01*
X124685512Y-103160237D01*
X125362096Y-103441180D01*
X126094690Y-103441819D01*
X126401155Y-103315190D01*
X132016500Y-103315190D01*
X132016500Y-103854250D01*
X132175250Y-104013000D01*
X133223000Y-104013000D01*
X133223000Y-102965250D01*
X133477000Y-102965250D01*
X133477000Y-104013000D01*
X134524750Y-104013000D01*
X134683500Y-103854250D01*
X134683500Y-103315190D01*
X134586827Y-103081801D01*
X134408198Y-102903173D01*
X134174809Y-102806500D01*
X133635750Y-102806500D01*
X133477000Y-102965250D01*
X133223000Y-102965250D01*
X133064250Y-102806500D01*
X132525191Y-102806500D01*
X132291802Y-102903173D01*
X132113173Y-103081801D01*
X132016500Y-103315190D01*
X126401155Y-103315190D01*
X126771763Y-103162058D01*
X127290237Y-102644488D01*
X127571180Y-101967904D01*
X127571819Y-101235310D01*
X127364028Y-100732416D01*
X137667648Y-100732416D01*
X137976350Y-101479532D01*
X138547462Y-102051641D01*
X139294037Y-102361646D01*
X140102416Y-102362352D01*
X140849532Y-102053650D01*
X141421641Y-101482538D01*
X141731646Y-100735963D01*
X141732352Y-99927584D01*
X141423650Y-99180468D01*
X140852538Y-98608359D01*
X140105963Y-98298354D01*
X139297584Y-98297648D01*
X138550468Y-98606350D01*
X137978359Y-99177462D01*
X137668354Y-99924037D01*
X137667648Y-100732416D01*
X127364028Y-100732416D01*
X127292058Y-100558237D01*
X126909757Y-100175268D01*
X126966827Y-100118199D01*
X127063500Y-99884810D01*
X127063500Y-99345750D01*
X126904750Y-99187000D01*
X125857000Y-99187000D01*
X125857000Y-99207000D01*
X125603000Y-99207000D01*
X125603000Y-99187000D01*
X124555250Y-99187000D01*
X124396500Y-99345750D01*
X124396500Y-99884810D01*
X124493173Y-100118199D01*
X124550457Y-100175482D01*
X124460056Y-100265725D01*
X124234488Y-100039763D01*
X123557904Y-99758820D01*
X122825310Y-99758181D01*
X122148237Y-100037942D01*
X121629763Y-100555512D01*
X121348820Y-101232096D01*
X121348181Y-101964690D01*
X117665182Y-101964690D01*
X117665863Y-101185008D01*
X117347514Y-100414545D01*
X117263485Y-100330369D01*
X117345442Y-100248555D01*
X117665135Y-99478649D01*
X117665863Y-98645008D01*
X117496530Y-98235190D01*
X124396500Y-98235190D01*
X124396500Y-98774250D01*
X124555250Y-98933000D01*
X125603000Y-98933000D01*
X125603000Y-97885250D01*
X125857000Y-97885250D01*
X125857000Y-98933000D01*
X126904750Y-98933000D01*
X127063500Y-98774250D01*
X127063500Y-98235190D01*
X126966827Y-98001801D01*
X126788198Y-97823173D01*
X126554809Y-97726500D01*
X126015750Y-97726500D01*
X125857000Y-97885250D01*
X125603000Y-97885250D01*
X125444250Y-97726500D01*
X124905191Y-97726500D01*
X124671802Y-97823173D01*
X124493173Y-98001801D01*
X124396500Y-98235190D01*
X117496530Y-98235190D01*
X117347514Y-97874545D01*
X117263485Y-97790369D01*
X117345442Y-97708555D01*
X117665135Y-96938649D01*
X117665467Y-96558577D01*
X118110000Y-96647000D01*
X127000000Y-96647000D01*
X127534609Y-96540660D01*
X127987828Y-96237828D01*
X129959906Y-94265750D01*
X130746500Y-94265750D01*
X130746500Y-94804809D01*
X130843173Y-95038198D01*
X131021801Y-95216827D01*
X131255190Y-95313500D01*
X131794250Y-95313500D01*
X131953000Y-95154750D01*
X131953000Y-94107000D01*
X130905250Y-94107000D01*
X130746500Y-94265750D01*
X129959906Y-94265750D01*
X130746500Y-93479156D01*
X130746500Y-93694250D01*
X130905250Y-93853000D01*
X131953000Y-93853000D01*
X131953000Y-92805250D01*
X132207000Y-92805250D01*
X132207000Y-93853000D01*
X132227000Y-93853000D01*
X132227000Y-94107000D01*
X132207000Y-94107000D01*
X132207000Y-95154750D01*
X132365750Y-95313500D01*
X132904810Y-95313500D01*
X133138199Y-95216827D01*
X133195482Y-95159543D01*
X133285725Y-95249944D01*
X133059763Y-95475512D01*
X132778820Y-96152096D01*
X132778181Y-96884690D01*
X133057942Y-97561763D01*
X133575512Y-98080237D01*
X134252096Y-98361180D01*
X134984690Y-98361819D01*
X135661763Y-98082058D01*
X136180237Y-97564488D01*
X136461180Y-96887904D01*
X136461819Y-96155310D01*
X136182058Y-95478237D01*
X135954275Y-95250056D01*
X136180237Y-95024488D01*
X136461180Y-94347904D01*
X136461819Y-93615310D01*
X136254028Y-93112416D01*
X137667648Y-93112416D01*
X137976350Y-93859532D01*
X138547462Y-94431641D01*
X139294037Y-94741646D01*
X140102416Y-94742352D01*
X140849532Y-94433650D01*
X141421641Y-93862538D01*
X141731646Y-93115963D01*
X141732352Y-92307584D01*
X141423650Y-91560468D01*
X140852538Y-90988359D01*
X140105963Y-90678354D01*
X139297584Y-90677648D01*
X138550468Y-90986350D01*
X137978359Y-91557462D01*
X137668354Y-92304037D01*
X137667648Y-93112416D01*
X136254028Y-93112416D01*
X136182058Y-92938237D01*
X135664488Y-92419763D01*
X134987904Y-92138820D01*
X134255310Y-92138181D01*
X133578237Y-92417942D01*
X133195268Y-92800243D01*
X133138199Y-92743173D01*
X132904810Y-92646500D01*
X132365750Y-92646500D01*
X132207000Y-92805250D01*
X131953000Y-92805250D01*
X131794250Y-92646500D01*
X131579156Y-92646500D01*
X135833705Y-88391951D01*
X136292416Y-88392352D01*
X137039532Y-88083650D01*
X137611641Y-87512538D01*
X137921646Y-86765963D01*
X137922352Y-85957584D01*
X137613650Y-85210468D01*
X137042538Y-84638359D01*
X136686283Y-84490429D01*
X137071100Y-84233303D01*
X137587788Y-84578542D01*
X138341100Y-84728385D01*
X139094412Y-84578542D01*
X139611100Y-84233303D01*
X140127788Y-84578542D01*
X140881100Y-84728385D01*
X141634412Y-84578542D01*
X142151100Y-84233303D01*
X142603819Y-84535799D01*
X142360468Y-84636350D01*
X141788359Y-85207462D01*
X141478354Y-85954037D01*
X141477648Y-86762416D01*
X141786350Y-87509532D01*
X142113000Y-87836752D01*
X142113000Y-101021344D01*
X137851344Y-105283000D01*
X134557440Y-105283000D01*
X134529757Y-105255268D01*
X134586827Y-105198199D01*
X134683500Y-104964810D01*
X134683500Y-104425750D01*
X134524750Y-104267000D01*
X133477000Y-104267000D01*
X133477000Y-104287000D01*
X133223000Y-104287000D01*
X133223000Y-104267000D01*
X132175250Y-104267000D01*
X132016500Y-104425750D01*
X132016500Y-104964810D01*
X132113173Y-105198199D01*
X132170457Y-105255482D01*
X132080056Y-105345725D01*
X131854488Y-105119763D01*
X131177904Y-104838820D01*
X130445310Y-104838181D01*
X129768237Y-105117942D01*
X129249763Y-105635512D01*
X128968820Y-106312096D01*
X128968181Y-107044690D01*
X129247942Y-107721763D01*
X129765512Y-108240237D01*
X130442096Y-108521180D01*
X131174690Y-108521819D01*
X131851763Y-108242058D01*
X132079944Y-108014275D01*
X132305512Y-108240237D01*
X132982096Y-108521180D01*
X133714690Y-108521819D01*
X134391763Y-108242058D01*
X134535655Y-108098416D01*
X141223648Y-108098416D01*
X141532350Y-108845532D01*
X142103462Y-109417641D01*
X142850037Y-109727646D01*
X143658416Y-109728352D01*
X144405532Y-109419650D01*
X144977641Y-108848538D01*
X145287646Y-108101963D01*
X145287649Y-108098416D01*
X148843648Y-108098416D01*
X149152350Y-108845532D01*
X149723462Y-109417641D01*
X150470037Y-109727646D01*
X151278416Y-109728352D01*
X152025532Y-109419650D01*
X152597641Y-108848538D01*
X152907646Y-108101963D01*
X152908352Y-107293584D01*
X152599650Y-106546468D01*
X152028538Y-105974359D01*
X151281963Y-105664354D01*
X150473584Y-105663648D01*
X149726468Y-105972350D01*
X149154359Y-106543462D01*
X148844354Y-107290037D01*
X148843648Y-108098416D01*
X145287649Y-108098416D01*
X145288352Y-107293584D01*
X144979650Y-106546468D01*
X144408538Y-105974359D01*
X143661963Y-105664354D01*
X142853584Y-105663648D01*
X142106468Y-105972350D01*
X141534359Y-106543462D01*
X141224354Y-107290037D01*
X141223648Y-108098416D01*
X134535655Y-108098416D01*
X134557109Y-108077000D01*
X138430000Y-108077000D01*
X138964609Y-107970660D01*
X139417828Y-107667828D01*
X144497828Y-102587828D01*
X144800660Y-102134609D01*
X144907000Y-101600000D01*
X144907000Y-99515602D01*
X145644037Y-99821646D01*
X146452416Y-99822352D01*
X147199532Y-99513650D01*
X147771641Y-98942538D01*
X148081646Y-98195963D01*
X148082352Y-97387584D01*
X147773650Y-96640468D01*
X147202538Y-96068359D01*
X146455963Y-95758354D01*
X145647584Y-95757648D01*
X144907000Y-96063651D01*
X144907000Y-91895602D01*
X145644037Y-92201646D01*
X146452416Y-92202352D01*
X147199532Y-91893650D01*
X147771641Y-91322538D01*
X148081646Y-90575963D01*
X148082352Y-89767584D01*
X147773650Y-89020468D01*
X147202538Y-88448359D01*
X146455963Y-88138354D01*
X145647584Y-88137648D01*
X144907000Y-88443651D01*
X144907000Y-87836613D01*
X145231641Y-87512538D01*
X145541646Y-86765963D01*
X145542352Y-85957584D01*
X145233650Y-85210468D01*
X144662538Y-84638359D01*
X144306283Y-84490429D01*
X144691100Y-84233303D01*
X145207788Y-84578542D01*
X145961100Y-84728385D01*
X146714412Y-84578542D01*
X147231100Y-84233303D01*
X147747788Y-84578542D01*
X148501100Y-84728385D01*
X149254412Y-84578542D01*
X149771100Y-84233303D01*
X150287788Y-84578542D01*
X151041100Y-84728385D01*
X151794412Y-84578542D01*
X152311100Y-84233303D01*
X152827788Y-84578542D01*
X153581100Y-84728385D01*
X154334412Y-84578542D01*
X154851100Y-84233303D01*
X155367788Y-84578542D01*
X156121100Y-84728385D01*
X156874412Y-84578542D01*
X157391100Y-84233303D01*
X157907788Y-84578542D01*
X158661100Y-84728385D01*
X159414412Y-84578542D01*
X159931100Y-84233303D01*
X160447788Y-84578542D01*
X161201100Y-84728385D01*
X161954412Y-84578542D01*
X162593040Y-84151825D01*
X162801687Y-83839562D01*
X163299523Y-84113027D01*
X163388056Y-84132288D01*
X163614100Y-84010640D01*
X163614100Y-82524600D01*
X163594100Y-82524600D01*
X163594100Y-82270600D01*
X163614100Y-82270600D01*
X163614100Y-79476600D01*
X163594100Y-79476600D01*
X163594100Y-79222600D01*
X163614100Y-79222600D01*
X163614100Y-77857350D01*
X163455350Y-77698600D01*
X162852791Y-77698600D01*
X162703368Y-77760493D01*
X162593040Y-77595375D01*
X161954412Y-77168658D01*
X161201100Y-77018815D01*
X160447788Y-77168658D01*
X159809160Y-77595375D01*
X159600513Y-77907638D01*
X159102677Y-77634173D01*
X159014144Y-77614912D01*
X158788100Y-77736560D01*
X158788100Y-79222600D01*
X158808100Y-79222600D01*
X158808100Y-79476600D01*
X158788100Y-79476600D01*
X158788100Y-79496600D01*
X158534100Y-79496600D01*
X158534100Y-79476600D01*
X158514100Y-79476600D01*
X158514100Y-79222600D01*
X158534100Y-79222600D01*
X158534100Y-77736560D01*
X158308056Y-77614912D01*
X158219523Y-77634173D01*
X157721687Y-77907638D01*
X157513040Y-77595375D01*
X156874412Y-77168658D01*
X156121100Y-77018815D01*
X155367788Y-77168658D01*
X154851100Y-77513897D01*
X154334412Y-77168658D01*
X153581100Y-77018815D01*
X152827788Y-77168658D01*
X152311100Y-77513897D01*
X151794412Y-77168658D01*
X151041100Y-77018815D01*
X150287788Y-77168658D01*
X149771100Y-77513897D01*
X149254412Y-77168658D01*
X148501100Y-77018815D01*
X147747788Y-77168658D01*
X147231100Y-77513897D01*
X146714412Y-77168658D01*
X145961100Y-77018815D01*
X145312534Y-77147823D01*
X146133357Y-76327000D01*
X163251344Y-76327000D01*
X164622944Y-77698600D01*
G36*
X101480375Y-129155858D02*
X101320600Y-129705100D01*
X101320600Y-130022600D01*
X102654100Y-130022600D01*
X102654100Y-130002600D01*
X102908100Y-130002600D01*
X102908100Y-130022600D01*
X102928100Y-130022600D01*
X102928100Y-130276600D01*
X102908100Y-130276600D01*
X102908100Y-133070600D01*
X102928100Y-133070600D01*
X102928100Y-133324600D01*
X102908100Y-133324600D01*
X102908100Y-133344600D01*
X102654100Y-133344600D01*
X102654100Y-133324600D01*
X101320600Y-133324600D01*
X101320600Y-133634944D01*
X100457000Y-132771344D01*
X100457000Y-130276600D01*
X101320600Y-130276600D01*
X101320600Y-130594100D01*
X101480375Y-131143342D01*
X101838173Y-131589632D01*
X101991035Y-131673600D01*
X101838173Y-131757568D01*
X101480375Y-132203858D01*
X101320600Y-132753100D01*
X101320600Y-133070600D01*
X102654100Y-133070600D01*
X102654100Y-130276600D01*
X101320600Y-130276600D01*
X100457000Y-130276600D01*
X100457000Y-130118656D01*
X101725305Y-128850351D01*
X101480375Y-129155858D01*
X101480375Y-129155858D01*
G37*
X101480375Y-129155858D02*
X101320600Y-129705100D01*
X101320600Y-130022600D01*
X102654100Y-130022600D01*
X102654100Y-130002600D01*
X102908100Y-130002600D01*
X102908100Y-130022600D01*
X102928100Y-130022600D01*
X102928100Y-130276600D01*
X102908100Y-130276600D01*
X102908100Y-133070600D01*
X102928100Y-133070600D01*
X102928100Y-133324600D01*
X102908100Y-133324600D01*
X102908100Y-133344600D01*
X102654100Y-133344600D01*
X102654100Y-133324600D01*
X101320600Y-133324600D01*
X101320600Y-133634944D01*
X100457000Y-132771344D01*
X100457000Y-130276600D01*
X101320600Y-130276600D01*
X101320600Y-130594100D01*
X101480375Y-131143342D01*
X101838173Y-131589632D01*
X101991035Y-131673600D01*
X101838173Y-131757568D01*
X101480375Y-132203858D01*
X101320600Y-132753100D01*
X101320600Y-133070600D01*
X102654100Y-133070600D01*
X102654100Y-130276600D01*
X101320600Y-130276600D01*
X100457000Y-130276600D01*
X100457000Y-130118656D01*
X101725305Y-128850351D01*
X101480375Y-129155858D01*
G36*
X162687000Y-109093000D02*
X162707000Y-109093000D01*
X162707000Y-109347000D01*
X162687000Y-109347000D01*
X162687000Y-110617000D01*
X163068000Y-110617000D01*
X163592941Y-110462059D01*
X163703000Y-110373112D01*
X163703000Y-111760000D01*
X163809340Y-112294609D01*
X164112172Y-112747828D01*
X172593000Y-121228656D01*
X172593000Y-127437344D01*
X170956181Y-125800525D01*
X170987533Y-125787539D01*
X171072591Y-125532196D01*
X170180000Y-124639605D01*
X170165858Y-124653748D01*
X169986253Y-124474143D01*
X170000395Y-124460000D01*
X170359605Y-124460000D01*
X171252196Y-125352591D01*
X171507539Y-125267533D01*
X171715516Y-124698035D01*
X171689723Y-124092300D01*
X171507539Y-123652467D01*
X171252196Y-123567409D01*
X170359605Y-124460000D01*
X170000395Y-124460000D01*
X169107804Y-123567409D01*
X168852461Y-123652467D01*
X168840600Y-123684944D01*
X168543460Y-123387804D01*
X169287409Y-123387804D01*
X170180000Y-124280395D01*
X171072591Y-123387804D01*
X170987533Y-123132461D01*
X170418035Y-122924484D01*
X169812300Y-122950277D01*
X169372467Y-123132461D01*
X169287409Y-123387804D01*
X168543460Y-123387804D01*
X161417000Y-116261344D01*
X161417000Y-110373112D01*
X161527059Y-110462059D01*
X162052000Y-110617000D01*
X162433000Y-110617000D01*
X162433000Y-109347000D01*
X162413000Y-109347000D01*
X162413000Y-109093000D01*
X162433000Y-109093000D01*
X162433000Y-109073000D01*
X162687000Y-109073000D01*
X162687000Y-109093000D01*
X162687000Y-109093000D01*
G37*
X162687000Y-109093000D02*
X162707000Y-109093000D01*
X162707000Y-109347000D01*
X162687000Y-109347000D01*
X162687000Y-110617000D01*
X163068000Y-110617000D01*
X163592941Y-110462059D01*
X163703000Y-110373112D01*
X163703000Y-111760000D01*
X163809340Y-112294609D01*
X164112172Y-112747828D01*
X172593000Y-121228656D01*
X172593000Y-127437344D01*
X170956181Y-125800525D01*
X170987533Y-125787539D01*
X171072591Y-125532196D01*
X170180000Y-124639605D01*
X170165858Y-124653748D01*
X169986253Y-124474143D01*
X170000395Y-124460000D01*
X170359605Y-124460000D01*
X171252196Y-125352591D01*
X171507539Y-125267533D01*
X171715516Y-124698035D01*
X171689723Y-124092300D01*
X171507539Y-123652467D01*
X171252196Y-123567409D01*
X170359605Y-124460000D01*
X170000395Y-124460000D01*
X169107804Y-123567409D01*
X168852461Y-123652467D01*
X168840600Y-123684944D01*
X168543460Y-123387804D01*
X169287409Y-123387804D01*
X170180000Y-124280395D01*
X171072591Y-123387804D01*
X170987533Y-123132461D01*
X170418035Y-122924484D01*
X169812300Y-122950277D01*
X169372467Y-123132461D01*
X169287409Y-123387804D01*
X168543460Y-123387804D01*
X161417000Y-116261344D01*
X161417000Y-110373112D01*
X161527059Y-110462059D01*
X162052000Y-110617000D01*
X162433000Y-110617000D01*
X162433000Y-109347000D01*
X162413000Y-109347000D01*
X162413000Y-109093000D01*
X162433000Y-109093000D01*
X162433000Y-109073000D01*
X162687000Y-109073000D01*
X162687000Y-109093000D01*
M02*
