G04 #@! TF.FileFunction,Soldermask,Bot*
%FSLAX46Y46*%
G04 Gerber Fmt 4.6, Leading zero omitted, Abs format (unit mm)*
G04 Created by KiCad (PCBNEW 4.0.7) date 07/04/18 13:56:47*
%MOMM*%
%LPD*%
G01*
G04 APERTURE LIST*
%ADD10C,0.100000*%
%ADD11C,2.899360*%
%ADD12R,2.686000X1.924000*%
%ADD13O,2.686000X1.924000*%
%ADD14C,2.178000*%
%ADD15R,1.924000X2.432000*%
%ADD16O,2.051000X2.686000*%
%ADD17C,1.797000*%
%ADD18R,1.797000X1.797000*%
%ADD19R,2.178000X2.178000*%
%ADD20C,2.200000*%
%ADD21C,4.400000*%
%ADD22C,2.400000*%
%ADD23C,2.305000*%
%ADD24C,3.600000*%
G04 APERTURE END LIST*
D10*
D11*
X180467000Y-130048000D03*
X170307000Y-130048000D03*
D12*
X162560000Y-101600000D03*
D13*
X162560000Y-104140000D03*
X162560000Y-106680000D03*
X162560000Y-109220000D03*
X170180000Y-109220000D03*
X170180000Y-106680000D03*
X170180000Y-104140000D03*
X170180000Y-101600000D03*
D14*
X150876000Y-107696000D03*
X143256000Y-107696000D03*
D15*
X194219900Y-132943600D03*
D16*
X191679900Y-132943600D03*
X191679900Y-79603600D03*
D15*
X194219900Y-79603600D03*
X163741100Y-79349600D03*
D16*
X161201100Y-79349600D03*
X158661100Y-79349600D03*
X156121100Y-79349600D03*
X153581100Y-79349600D03*
X151041100Y-79349600D03*
X148501100Y-79349600D03*
X145961100Y-79349600D03*
X143421100Y-79349600D03*
X140881100Y-79349600D03*
X138341100Y-79349600D03*
X135801100Y-79349600D03*
X133261100Y-79349600D03*
X130721100Y-79349600D03*
X128181100Y-79349600D03*
X125641100Y-79349600D03*
X123101100Y-79349600D03*
X120561100Y-79349600D03*
X118021100Y-79349600D03*
X115481100Y-79349600D03*
X112941100Y-79349600D03*
X110401100Y-79349600D03*
X107861100Y-79349600D03*
X105321100Y-79349600D03*
X102781100Y-79349600D03*
X163741100Y-82397600D03*
X161201100Y-82397600D03*
X158661100Y-82397600D03*
X156121100Y-82397600D03*
X153581100Y-82397600D03*
X151041100Y-82397600D03*
X148501100Y-82397600D03*
X145961100Y-82397600D03*
X143421100Y-82397600D03*
X140881100Y-82397600D03*
X138341100Y-82397600D03*
X135801100Y-82397600D03*
X133261100Y-82397600D03*
X130721100Y-82397600D03*
X128181100Y-82397600D03*
X125641100Y-82397600D03*
X123101100Y-82397600D03*
X120561100Y-82397600D03*
X118021100Y-82397600D03*
X115481100Y-82397600D03*
X112941100Y-82397600D03*
X110401100Y-82397600D03*
X107861100Y-82397600D03*
X105321100Y-82397600D03*
X102781100Y-82397600D03*
X163741100Y-130149600D03*
X161201100Y-130149600D03*
X158661100Y-130149600D03*
X156121100Y-130149600D03*
X153581100Y-130149600D03*
X151041100Y-130149600D03*
X148501100Y-130149600D03*
X145961100Y-130149600D03*
X143421100Y-130149600D03*
X140881100Y-130149600D03*
X138341100Y-130149600D03*
X135801100Y-130149600D03*
X133261100Y-130149600D03*
X130721100Y-130149600D03*
X128181100Y-130149600D03*
X125641100Y-130149600D03*
X123101100Y-130149600D03*
X120561100Y-130149600D03*
X118021100Y-130149600D03*
X115481100Y-130149600D03*
X112941100Y-130149600D03*
X110401100Y-130149600D03*
X107861100Y-130149600D03*
X105321100Y-130149600D03*
X102781100Y-130149600D03*
X163741100Y-133197600D03*
X161201100Y-133197600D03*
X158661100Y-133197600D03*
X156121100Y-133197600D03*
X153581100Y-133197600D03*
X151041100Y-133197600D03*
X148501100Y-133197600D03*
X145961100Y-133197600D03*
X143421100Y-133197600D03*
X140881100Y-133197600D03*
X138341100Y-133197600D03*
X135801100Y-133197600D03*
X133261100Y-133197600D03*
X130721100Y-133197600D03*
X128181100Y-133197600D03*
X125641100Y-133197600D03*
X123101100Y-133197600D03*
X120561100Y-133197600D03*
X118021100Y-133197600D03*
X115481100Y-133197600D03*
X112941100Y-133197600D03*
X110401100Y-133197600D03*
X107861100Y-133197600D03*
X105321100Y-133197600D03*
X102781100Y-133197600D03*
D14*
X180340000Y-119380000D03*
X177800000Y-119380000D03*
D17*
X193040000Y-119110000D03*
D18*
X193040000Y-117110000D03*
D14*
X154940000Y-115570000D03*
X157480000Y-115570000D03*
D17*
X181880000Y-106680000D03*
D18*
X183880000Y-106680000D03*
D14*
X154940000Y-100330000D03*
X152400000Y-100330000D03*
D19*
X184150000Y-129540000D03*
D14*
X184150000Y-119380000D03*
D19*
X173990000Y-146050000D03*
D14*
X173990000Y-135890000D03*
D20*
X175340000Y-87630000D03*
X177840000Y-87630000D03*
X180340000Y-87630000D03*
D21*
X173440000Y-80630000D03*
X182240000Y-80630000D03*
D18*
X132080000Y-93980000D03*
D17*
X134620000Y-93980000D03*
X134620000Y-96520000D03*
D18*
X125730000Y-99060000D03*
D17*
X125730000Y-101600000D03*
X123190000Y-101600000D03*
D18*
X133350000Y-104140000D03*
D17*
X133350000Y-106680000D03*
X130810000Y-106680000D03*
D18*
X125730000Y-109220000D03*
D17*
X125730000Y-111760000D03*
X123190000Y-111760000D03*
D18*
X124460000Y-119380000D03*
D17*
X121920000Y-119380000D03*
X121920000Y-116840000D03*
D14*
X170180000Y-124460000D03*
X177800000Y-124460000D03*
X146050000Y-97790000D03*
X146050000Y-90170000D03*
X128270000Y-87630000D03*
X120650000Y-87630000D03*
X139700000Y-100330000D03*
X139700000Y-92710000D03*
X143510000Y-86360000D03*
X135890000Y-86360000D03*
X130810000Y-118110000D03*
X130810000Y-125730000D03*
X92710000Y-109220000D03*
X100330000Y-109220000D03*
X92710000Y-120650000D03*
X100330000Y-120650000D03*
X92710000Y-105410000D03*
X100330000Y-105410000D03*
X92710000Y-125730000D03*
X100330000Y-125730000D03*
X92710000Y-88900000D03*
X100330000Y-88900000D03*
X92710000Y-100330000D03*
X100330000Y-100330000D03*
X92710000Y-115570000D03*
X100330000Y-115570000D03*
X127000000Y-125730000D03*
X119380000Y-125730000D03*
X193040000Y-104140000D03*
X193040000Y-111760000D03*
D22*
X110490000Y-142930000D03*
X110490000Y-138430000D03*
X116990000Y-142930000D03*
X116990000Y-138430000D03*
X123190000Y-142930000D03*
X123190000Y-138430000D03*
X129690000Y-142930000D03*
X129690000Y-138430000D03*
X135890000Y-142930000D03*
X135890000Y-138430000D03*
X142390000Y-142930000D03*
X142390000Y-138430000D03*
X148590000Y-143057000D03*
X148590000Y-138557000D03*
X155090000Y-143057000D03*
X155090000Y-138557000D03*
X161290000Y-143057000D03*
X161290000Y-138557000D03*
X167790000Y-143057000D03*
X167790000Y-138557000D03*
D12*
X185420000Y-92710000D03*
D13*
X185420000Y-95250000D03*
X185420000Y-97790000D03*
X185420000Y-100330000D03*
X193040000Y-100330000D03*
X193040000Y-97790000D03*
X193040000Y-95250000D03*
X193040000Y-92710000D03*
D23*
X115570000Y-111760000D03*
X115570000Y-109220000D03*
X115570000Y-106680000D03*
X115570000Y-104140000D03*
X115570000Y-101600000D03*
X115570000Y-99060000D03*
X115570000Y-96520000D03*
X115570000Y-114300000D03*
X105410000Y-96520000D03*
X105410000Y-101600000D03*
X105410000Y-106680000D03*
X105410000Y-109220000D03*
X105410000Y-111760000D03*
X105410000Y-114300000D03*
D24*
X93980000Y-71120000D03*
X93980000Y-142240000D03*
X193040000Y-142240000D03*
X193040000Y-71120000D03*
M02*
